<?xml version="1.0" encoding="UTF-8"?>
<svg id="Layer_2" data-name="Layer 2" xmlns="http://www.w3.org/2000/svg" viewBox="0 0 748.18 570.82">
  <defs>
    <style>
      .cls-1 {
        fill: #fff;
      }
    </style>
  </defs>
  <g id="Layer_1-2" data-name="Layer 1">
    <g>
      <g>
        <path class="cls-1" d="M0,397.3h27.46v79.43c0,8.88,1.05,15.37,3.15,19.46,3.26,7.25,10.37,10.87,21.33,10.87s17.98-3.62,21.25-10.87c2.1-4.09,3.15-10.58,3.15-19.46v-79.43h27.46v79.5c0,13.75-2.13,24.45-6.39,32.11-7.94,14.04-23.1,21.06-45.46,21.06s-37.55-7.02-45.55-21.06c-4.26-7.66-6.39-18.37-6.39-32.11v-79.5Z"/>
        <path class="cls-1" d="M142.13,410.81c10.42-10.65,23.67-15.97,39.76-15.97,21.53,0,37.27,7.14,47.22,21.41,5.5,8.01,8.45,16.06,8.85,24.13h-27.03c-1.72-6.2-3.93-10.88-6.62-14.04-4.81-5.62-11.95-8.42-21.4-8.42s-17.22,3.96-22.78,11.89c-5.56,7.93-8.34,19.14-8.34,33.65s2.93,25.37,8.8,32.6c5.87,7.22,13.32,10.84,22.36,10.84s16.34-3.1,21.2-9.3c2.69-3.33,4.92-8.34,6.69-15h26.85c-2.32,14.1-8.23,25.56-17.75,34.4-9.52,8.83-21.72,13.25-36.59,13.25-18.4,0-32.87-5.97-43.4-17.9-10.53-11.99-15.8-28.43-15.8-49.31,0-22.58,5.99-39.98,17.97-52.21Z"/>
        <path class="cls-1" d="M355.18,420.2h-68.44v27.46h62.82v22.46h-62.82v33.25h71.6v23.25h-98.01v-129.33h94.85v22.9Z"/>
        <path class="cls-1" d="M398.88,486.71c.84,5.91,2.48,10.32,4.93,13.25,4.48,5.32,12.15,7.98,23.02,7.98,6.51,0,11.8-.7,15.86-2.11,7.71-2.69,11.56-7.69,11.56-15,0-4.27-1.89-7.58-5.66-9.92-3.78-2.28-9.76-4.3-17.96-6.05l-14-3.07c-13.76-3.04-23.22-6.35-28.36-9.91-8.72-5.97-13.07-15.3-13.07-27.99,0-11.58,4.26-21.2,12.79-28.87,8.53-7.66,21.05-11.5,37.57-11.5,13.8,0,25.57,3.61,35.31,10.84,9.74,7.22,14.85,17.71,15.32,31.46h-25.97c-.48-7.78-3.96-13.31-10.43-16.58-4.32-2.16-9.68-3.25-16.1-3.25-7.14,0-12.83,1.4-17.09,4.21-4.26,2.81-6.39,6.73-6.39,11.76,0,4.62,2.1,8.07,6.3,10.35,2.7,1.52,8.42,3.31,17.18,5.35l22.7,5.35c9.95,2.34,17.4,5.47,22.37,9.39,7.71,6.08,11.56,14.89,11.56,26.41s-4.57,21.63-13.7,29.44c-9.13,7.81-22.04,11.71-38.71,11.71s-30.42-3.85-40.18-11.54c-9.76-7.69-14.63-18.26-14.63-31.72h25.8Z"/>
        <path class="cls-1" d="M511.61,410.81c10.42-10.65,23.67-15.97,39.76-15.97,21.53,0,37.27,7.14,47.22,21.41,5.5,8.01,8.45,16.06,8.85,24.13h-27.02c-1.72-6.2-3.93-10.88-6.62-14.04-4.81-5.62-11.95-8.42-21.4-8.42s-17.22,3.96-22.78,11.89c-5.56,7.93-8.34,19.14-8.34,33.65s2.93,25.37,8.8,32.6c5.87,7.22,13.32,10.84,22.36,10.84s16.34-3.1,21.2-9.3c2.69-3.33,4.92-8.34,6.69-15h26.85c-2.32,14.1-8.23,25.56-17.75,34.4-9.52,8.83-21.71,13.25-36.59,13.25-18.4,0-32.87-5.97-43.4-17.9-10.53-11.99-15.8-28.43-15.8-49.31,0-22.58,5.99-39.98,17.97-52.21Z"/>
        <path class="cls-1" d="M728.62,515.14c-9.77,10.06-23.9,15.09-42.38,15.09s-32.61-5.03-42.38-15.09c-13.1-12.34-19.65-30.12-19.65-53.35s6.55-41.47,19.65-53.35c9.77-10.06,23.89-15.09,42.38-15.09s32.61,5.03,42.38,15.09c13.04,11.88,19.57,29.66,19.57,53.35s-6.52,41.01-19.57,53.35ZM711.73,495.49c6.29-7.9,9.43-19.13,9.43-33.69s-3.15-25.72-9.43-33.65c-6.29-7.93-14.79-11.89-25.49-11.89s-19.25,3.95-25.62,11.85c-6.38,7.9-9.56,19.13-9.56,33.69s3.19,25.8,9.56,33.69c6.38,7.9,14.92,11.84,25.62,11.84s19.2-3.95,25.49-11.84Z"/>
      </g>
      <g>
        <path class="cls-1" d="M1.94,556.09h3.04v8.8c0,.98.12,1.7.35,2.16.36.8,1.15,1.2,2.36,1.2s1.99-.4,2.35-1.2c.23-.45.35-1.17.35-2.16v-8.8h3.04v8.81c0,1.52-.24,2.71-.71,3.56-.88,1.56-2.56,2.33-5.04,2.33s-4.16-.78-5.05-2.33c-.47-.85-.71-2.04-.71-3.56v-8.81Z"/>
        <path class="cls-1" d="M16.27,556.09h3.14l5.69,10v-10h2.79v14.33h-2.99l-5.83-10.17v10.17h-2.79v-14.33Z"/>
        <path class="cls-1" d="M33.43,570.42h-2.98v-14.33h2.98v14.33Z"/>
        <path class="cls-1" d="M46.65,556.09v2.54h-4.29v11.8h-3.01v-11.8h-4.31v-2.54h11.61Z"/>
        <path class="cls-1" d="M59,558.63h-7.58v3.04h6.96v2.49h-6.96v3.69h7.93v2.58h-10.86v-14.33h10.51v2.54Z"/>
        <path class="cls-1" d="M70.08,556.4c1.01.33,1.82.94,2.44,1.82.5.71.84,1.48,1.02,2.31s.27,1.62.27,2.37c0,1.91-.38,3.52-1.15,4.84-1.04,1.78-2.64,2.67-4.81,2.67h-6.18v-14.33h6.18c.89.01,1.63.12,2.22.31ZM64.59,558.58v9.35h2.77c1.42,0,2.4-.7,2.96-2.09.31-.76.46-1.68.46-2.73,0-1.46-.23-2.58-.69-3.36-.46-.78-1.37-1.17-2.73-1.17h-2.77Z"/>
        <path class="cls-1" d="M82.97,557.59c1.15-1.18,2.62-1.77,4.41-1.77,2.39,0,4.13.79,5.23,2.37.61.89.94,1.78.98,2.67h-2.99c-.19-.69-.44-1.21-.73-1.56-.53-.62-1.32-.93-2.37-.93s-1.91.44-2.52,1.32c-.62.88-.92,2.12-.92,3.73s.32,2.81.97,3.61c.65.8,1.48,1.2,2.48,1.2s1.81-.34,2.35-1.03c.3-.37.55-.92.74-1.66h2.98c-.26,1.56-.91,2.83-1.97,3.81-1.06.98-2.41,1.47-4.06,1.47-2.04,0-3.64-.66-4.81-1.98-1.17-1.33-1.75-3.15-1.75-5.46,0-2.5.66-4.43,1.99-5.79Z"/>
        <path class="cls-1" d="M95.98,556.09h3.04v8.8c0,.98.12,1.7.35,2.16.36.8,1.15,1.2,2.36,1.2s1.99-.4,2.35-1.2c.23-.45.35-1.17.35-2.16v-8.8h3.04v8.81c0,1.52-.24,2.71-.71,3.56-.88,1.56-2.56,2.33-5.04,2.33s-4.16-.78-5.05-2.33c-.47-.85-.71-2.04-.71-3.56v-8.81Z"/>
        <path class="cls-1" d="M110.36,556.09h3v11.76h7.16v2.58h-10.15v-14.33Z"/>
        <path class="cls-1" d="M131.47,556.09v2.54h-4.29v11.8h-3.01v-11.8h-4.31v-2.54h11.61Z"/>
        <path class="cls-1" d="M133.22,556.09h3.04v8.8c0,.98.12,1.7.35,2.16.36.8,1.15,1.2,2.36,1.2s1.99-.4,2.35-1.2c.23-.45.35-1.17.35-2.16v-8.8h3.04v8.81c0,1.52-.24,2.71-.71,3.56-.88,1.56-2.56,2.33-5.04,2.33s-4.16-.78-5.05-2.33c-.47-.85-.71-2.04-.71-3.56v-8.81Z"/>
        <path class="cls-1" d="M156.79,556.46c.53.23.98.56,1.34,1,.3.36.54.77.72,1.21.18.44.27.94.27,1.51,0,.68-.17,1.35-.52,2.01s-.91,1.12-1.7,1.4c.66.27,1.13.64,1.41,1.13.28.49.41,1.24.41,2.24v.96c0,.66.03,1.1.08,1.33.08.37.26.64.55.82v.36h-3.31c-.09-.32-.16-.57-.19-.77-.08-.4-.12-.81-.13-1.23l-.02-1.33c-.01-.92-.17-1.52-.47-1.83-.3-.3-.87-.46-1.71-.46h-2.93v5.62h-2.93v-14.33h6.86c.98.02,1.73.14,2.26.37ZM150.6,558.58v3.85h3.22c.64,0,1.12-.08,1.44-.23.57-.27.85-.81.85-1.61,0-.87-.27-1.45-.82-1.75-.31-.17-.77-.25-1.39-.25h-3.31Z"/>
        <path class="cls-1" d="M166.09,556.09h3.39l5.07,14.33h-3.25l-.95-2.95h-5.28l-.97,2.95h-3.13l5.12-14.33ZM165.89,565.01h3.67l-1.81-5.64-1.86,5.64Z"/>
        <path class="cls-1" d="M176.37,556.09h3v11.76h7.16v2.58h-10.15v-14.33Z"/>
        <path class="cls-1" d="M204.32,558.63h-7.58v3.04h6.96v2.49h-6.96v3.69h7.93v2.58h-10.86v-14.33h10.51v2.54Z"/>
        <path class="cls-1" d="M216.51,556.09h4.31v14.33h-2.79v-9.7c0-.28,0-.67,0-1.17,0-.5,0-.89,0-1.16l-2.72,12.03h-2.91l-2.7-12.03c0,.27,0,.66,0,1.16,0,.5,0,.89,0,1.17v9.7h-2.79v-14.33h4.36l2.61,11.27,2.59-11.27Z"/>
        <path class="cls-1" d="M233.21,564.22c-.84.7-2.04,1.05-3.59,1.05h-2.98v5.15h-2.98v-14.33h6.15c1.42,0,2.55.37,3.39,1.11.84.74,1.27,1.88,1.27,3.43,0,1.69-.42,2.89-1.26,3.59ZM230.93,559.05c-.38-.32-.91-.48-1.59-.48h-2.7v4.22h2.7c.68,0,1.21-.17,1.59-.52.38-.34.57-.89.57-1.63s-.19-1.28-.57-1.6Z"/>
        <path class="cls-1" d="M247.91,569.15c-1.08,1.11-2.65,1.67-4.7,1.67s-3.61-.56-4.7-1.67c-1.45-1.37-2.18-3.34-2.18-5.91s.73-4.6,2.18-5.91c1.08-1.12,2.65-1.67,4.7-1.67s3.61.56,4.7,1.67c1.45,1.32,2.17,3.29,2.17,5.91s-.72,4.54-2.17,5.91ZM246.04,566.97c.7-.88,1.05-2.12,1.05-3.73s-.35-2.85-1.05-3.73c-.7-.88-1.64-1.32-2.82-1.32s-2.13.44-2.84,1.31c-.71.88-1.06,2.12-1.06,3.73s.35,2.86,1.06,3.73,1.65,1.31,2.84,1.31,2.13-.44,2.82-1.31Z"/>
        <path class="cls-1" d="M254.31,556.09l1.89,8.21.41,2.28.41-2.24,1.62-8.26h3.16l1.7,8.21.44,2.29.44-2.2,1.91-8.3h3.05l-4.03,14.33h-2.87l-1.73-8.38-.51-2.77-.51,2.77-1.73,8.38h-2.78l-4.06-14.33h3.18Z"/>
        <path class="cls-1" d="M281.76,558.63h-7.58v3.04h6.96v2.49h-6.96v3.69h7.93v2.58h-10.86v-14.33h10.51v2.54Z"/>
        <path class="cls-1" d="M293.63,556.46c.53.23.98.56,1.34,1,.3.36.54.77.72,1.21.18.44.27.94.27,1.51,0,.68-.17,1.35-.52,2.01s-.91,1.12-1.7,1.4c.66.27,1.13.64,1.41,1.13.28.49.41,1.24.41,2.24v.96c0,.66.03,1.1.08,1.33.08.37.26.64.55.82v.36h-3.31c-.09-.32-.16-.57-.19-.77-.08-.4-.12-.81-.13-1.23l-.02-1.33c-.01-.92-.17-1.52-.47-1.83-.3-.3-.87-.46-1.71-.46h-2.93v5.62h-2.93v-14.33h6.86c.98.02,1.73.14,2.26.37ZM287.44,558.58v3.85h3.22c.64,0,1.12-.08,1.44-.23.57-.27.85-.81.85-1.61,0-.87-.27-1.45-.82-1.75-.31-.17-.77-.25-1.39-.25h-3.31Z"/>
        <path class="cls-1" d="M308.34,556.09h4.31v14.33h-2.79v-9.7c0-.28,0-.67,0-1.17,0-.5,0-.89,0-1.16l-2.72,12.03h-2.91l-2.7-12.03c0,.27,0,.66,0,1.16,0,.5,0,.89,0,1.17v9.7h-2.79v-14.33h4.36l2.61,11.27,2.59-11.27Z"/>
        <path class="cls-1" d="M326.02,558.63h-7.58v3.04h6.96v2.49h-6.96v3.69h7.93v2.58h-10.86v-14.33h10.51v2.54Z"/>
        <path class="cls-1" d="M328.65,556.09h3.14l5.69,10v-10h2.79v14.33h-2.99l-5.83-10.17v10.17h-2.79v-14.33Z"/>
        <path class="cls-1" d="M353.5,556.09v2.54h-4.29v11.8h-3.01v-11.8h-4.31v-2.54h11.61Z"/>
        <path class="cls-1" d="M360.99,564.43c.43-.62,1.13-1.23,2.1-1.83l.3-.18c-.42-.47-.74-.95-.96-1.43-.23-.49-.34-.99-.34-1.52,0-1.04.35-1.86,1.06-2.45.71-.59,1.63-.88,2.76-.88,1.03,0,1.88.3,2.55.9.67.6,1.01,1.37,1.01,2.31,0,.85-.2,1.53-.6,2.06-.4.53-.99,1.01-1.77,1.46l2.06,2.5c.24-.34.42-.7.55-1.1.13-.4.2-.81.2-1.25h2.46c-.04.87-.25,1.75-.63,2.64-.21.5-.54,1.05-1.01,1.66l2.6,3.11h-3.35l-1-1.21c-.48.45-.94.78-1.36,1-.75.38-1.61.58-2.58.58-1.47,0-2.61-.43-3.44-1.28s-1.24-1.81-1.24-2.85c0-.86.21-1.6.64-2.22ZM363.69,567.86c.39.4.9.59,1.51.59.46,0,.9-.1,1.31-.31.41-.21.75-.44,1-.7l-2.68-3.27c-.7.46-1.17.87-1.39,1.22-.23.35-.34.74-.34,1.16,0,.47.2.91.59,1.3ZM364.91,560.19c.12.19.38.52.79,1,.4-.27.69-.5.87-.69.34-.35.5-.73.5-1.14,0-.3-.1-.56-.3-.8-.2-.23-.51-.35-.92-.35-.26,0-.49.07-.72.21-.34.2-.5.52-.5.96,0,.26.09.53.28.82Z"/>
        <path class="cls-1" d="M382.85,566c.09.66.27,1.14.55,1.47.5.59,1.35.88,2.55.88.72,0,1.31-.08,1.76-.23.85-.3,1.28-.85,1.28-1.66,0-.47-.21-.84-.63-1.1-.42-.25-1.08-.48-1.99-.67l-1.55-.34c-1.53-.34-2.57-.7-3.14-1.1-.97-.66-1.45-1.7-1.45-3.1,0-1.28.47-2.35,1.42-3.2.95-.85,2.33-1.27,4.16-1.27,1.53,0,2.83.4,3.91,1.2,1.08.8,1.65,1.96,1.7,3.49h-2.88c-.05-.86-.44-1.47-1.16-1.84-.48-.24-1.07-.36-1.78-.36-.79,0-1.42.16-1.89.47-.47.31-.71.75-.71,1.3,0,.51.23.89.7,1.15.3.17.93.37,1.9.59l2.52.59c1.1.26,1.93.61,2.48,1.04.85.67,1.28,1.65,1.28,2.93s-.51,2.4-1.52,3.26c-1.01.87-2.44,1.3-4.29,1.3s-3.37-.43-4.45-1.28-1.62-2.02-1.62-3.52h2.86Z"/>
        <path class="cls-1" d="M405.02,569.15c-1.08,1.11-2.65,1.67-4.7,1.67s-3.61-.56-4.7-1.67c-1.45-1.37-2.18-3.34-2.18-5.91s.73-4.6,2.18-5.91c1.08-1.12,2.65-1.67,4.7-1.67s3.61.56,4.7,1.67c1.45,1.32,2.17,3.29,2.17,5.91s-.72,4.54-2.17,5.91ZM403.15,566.97c.7-.88,1.04-2.12,1.04-3.73s-.35-2.85-1.04-3.73c-.7-.88-1.64-1.32-2.83-1.32s-2.13.44-2.84,1.31c-.71.88-1.06,2.12-1.06,3.73s.35,2.86,1.06,3.73c.71.88,1.65,1.31,2.84,1.31s2.13-.44,2.83-1.31Z"/>
        <path class="cls-1" d="M410.84,557.59c1.16-1.18,2.62-1.77,4.41-1.77,2.39,0,4.13.79,5.23,2.37.61.89.94,1.78.98,2.67h-3c-.19-.69-.43-1.21-.73-1.56-.53-.62-1.32-.93-2.37-.93s-1.91.44-2.52,1.32c-.62.88-.92,2.12-.92,3.73s.33,2.81.97,3.61c.65.8,1.48,1.2,2.48,1.2s1.81-.34,2.35-1.03c.3-.37.54-.92.74-1.66h2.98c-.26,1.56-.91,2.83-1.97,3.81-1.06.98-2.41,1.47-4.05,1.47-2.04,0-3.64-.66-4.81-1.98-1.17-1.33-1.75-3.15-1.75-5.46,0-2.5.66-4.43,1.99-5.79Z"/>
        <path class="cls-1" d="M426.59,570.42h-2.98v-14.33h2.98v14.33Z"/>
        <path class="cls-1" d="M433.48,556.09h3.39l5.07,14.33h-3.25l-.95-2.95h-5.28l-.97,2.95h-3.13l5.12-14.33ZM433.29,565.01h3.67l-1.81-5.64-1.86,5.64Z"/>
        <path class="cls-1" d="M443.77,556.09h3v11.76h7.16v2.58h-10.15v-14.33Z"/>
        <path class="cls-1" d="M462.48,557.59c1.16-1.18,2.62-1.77,4.41-1.77,2.39,0,4.13.79,5.23,2.37.61.89.94,1.78.98,2.67h-3c-.19-.69-.43-1.21-.73-1.56-.53-.62-1.32-.93-2.37-.93s-1.91.44-2.52,1.32c-.62.88-.92,2.12-.92,3.73s.33,2.81.97,3.61c.65.8,1.48,1.2,2.48,1.2s1.81-.34,2.35-1.03c.3-.37.54-.92.74-1.66h2.98c-.26,1.56-.91,2.83-1.97,3.81-1.06.98-2.41,1.47-4.05,1.47-2.04,0-3.64-.66-4.81-1.98-1.17-1.33-1.75-3.15-1.75-5.46,0-2.5.66-4.43,1.99-5.79Z"/>
        <path class="cls-1" d="M486.53,569.15c-1.08,1.11-2.65,1.67-4.7,1.67s-3.61-.56-4.7-1.67c-1.45-1.37-2.18-3.34-2.18-5.91s.73-4.6,2.18-5.91c1.08-1.12,2.65-1.67,4.7-1.67s3.61.56,4.7,1.67c1.45,1.32,2.17,3.29,2.17,5.91s-.72,4.54-2.17,5.91ZM484.66,566.97c.7-.88,1.04-2.12,1.04-3.73s-.35-2.85-1.04-3.73c-.7-.88-1.64-1.32-2.83-1.32s-2.13.44-2.84,1.31c-.71.88-1.06,2.12-1.06,3.73s.35,2.86,1.06,3.73c.71.88,1.65,1.31,2.84,1.31s2.13-.44,2.83-1.31Z"/>
        <path class="cls-1" d="M500.5,556.09h4.31v14.33h-2.79v-9.7c0-.28,0-.67,0-1.17,0-.5,0-.89,0-1.16l-2.72,12.03h-2.91l-2.7-12.03c0,.27,0,.66,0,1.16,0,.5,0,.89,0,1.17v9.7h-2.79v-14.33h4.36l2.61,11.27,2.59-11.27Z"/>
        <path class="cls-1" d="M517.09,556.09h4.31v14.33h-2.79v-9.7c0-.28,0-.67,0-1.17,0-.5,0-.89,0-1.16l-2.72,12.03h-2.91l-2.7-12.03c0,.27,0,.66,0,1.16,0,.5,0,.89,0,1.17v9.7h-2.79v-14.33h4.36l2.61,11.27,2.59-11.27Z"/>
        <path class="cls-1" d="M524.17,556.09h3.04v8.8c0,.98.12,1.7.35,2.16.36.8,1.15,1.2,2.36,1.2s1.99-.4,2.35-1.2c.23-.45.35-1.17.35-2.16v-8.8h3.04v8.81c0,1.52-.24,2.71-.71,3.56-.88,1.56-2.56,2.33-5.04,2.33s-4.16-.78-5.05-2.33c-.47-.85-.71-2.04-.71-3.56v-8.81Z"/>
        <path class="cls-1" d="M538.5,556.09h3.14l5.69,10v-10h2.79v14.33h-2.99l-5.84-10.17v10.17h-2.79v-14.33Z"/>
        <path class="cls-1" d="M555.66,570.42h-2.98v-14.33h2.98v14.33Z"/>
        <path class="cls-1" d="M568.88,556.09v2.54h-4.29v11.8h-3.01v-11.8h-4.31v-2.54h11.61Z"/>
        <path class="cls-1" d="M578.81,556.09h3.39l-4.79,8.96v5.37h-3v-5.37l-4.96-8.96h3.53l2.98,6.24,2.85-6.24Z"/>
        <path class="cls-1" d="M600.13,569.15c-1.08,1.11-2.65,1.67-4.7,1.67s-3.61-.56-4.7-1.67c-1.45-1.37-2.18-3.34-2.18-5.91s.73-4.6,2.18-5.91c1.08-1.12,2.65-1.67,4.7-1.67s3.61.56,4.7,1.67c1.45,1.32,2.17,3.29,2.17,5.91s-.72,4.54-2.17,5.91ZM598.26,566.97c.7-.88,1.04-2.12,1.04-3.73s-.35-2.85-1.04-3.73c-.7-.88-1.64-1.32-2.83-1.32s-2.13.44-2.84,1.31c-.71.88-1.06,2.12-1.06,3.73s.35,2.86,1.06,3.73c.71.88,1.65,1.31,2.84,1.31s2.13-.44,2.83-1.31Z"/>
        <path class="cls-1" d="M613.77,556.46c.53.23.98.56,1.34,1,.3.36.54.77.72,1.21.18.44.27.94.27,1.51,0,.68-.17,1.35-.51,2.01-.34.66-.91,1.12-1.7,1.4.66.27,1.13.64,1.41,1.13s.41,1.24.41,2.24v.96c0,.66.03,1.1.08,1.33.08.37.26.64.55.82v.36h-3.31c-.09-.32-.16-.57-.19-.77-.08-.4-.12-.81-.13-1.23l-.02-1.33c-.01-.92-.17-1.52-.47-1.83-.3-.3-.87-.46-1.71-.46h-2.93v5.62h-2.93v-14.33h6.86c.98.02,1.73.14,2.26.37ZM607.58,558.58v3.85h3.22c.64,0,1.12-.08,1.44-.23.57-.27.85-.81.85-1.61,0-.87-.27-1.45-.82-1.75-.31-.17-.77-.25-1.39-.25h-3.31Z"/>
        <path class="cls-1" d="M628.61,560.56c-.23-.98-.78-1.66-1.66-2.05-.49-.21-1.04-.32-1.64-.32-1.15,0-2.1.44-2.84,1.31s-1.11,2.18-1.11,3.93.4,3.01,1.21,3.74c.8.73,1.72,1.1,2.74,1.1s1.83-.29,2.47-.86c.64-.58,1.04-1.33,1.19-2.27h-3.32v-2.39h5.97v7.69h-1.98l-.3-1.79c-.58.68-1.1,1.16-1.56,1.43-.79.48-1.76.73-2.92.73-1.9,0-3.46-.66-4.67-1.97-1.26-1.32-1.9-3.13-1.9-5.42s.64-4.18,1.92-5.58,2.97-2.1,5.07-2.1c1.82,0,3.29.46,4.39,1.39s1.74,2.08,1.9,3.46h-2.95Z"/>
        <path class="cls-1" d="M638.56,556.09h3.39l5.07,14.33h-3.25l-.95-2.95h-5.28l-.97,2.95h-3.13l5.12-14.33ZM638.36,565.01h3.67l-1.81-5.64-1.86,5.64Z"/>
        <path class="cls-1" d="M648.79,556.09h3.14l5.69,10v-10h2.79v14.33h-2.99l-5.84-10.17v10.17h-2.79v-14.33Z"/>
        <path class="cls-1" d="M665.96,570.42h-2.98v-14.33h2.98v14.33Z"/>
        <path class="cls-1" d="M670.92,566c.09.66.27,1.14.55,1.47.5.59,1.35.88,2.55.88.72,0,1.31-.08,1.76-.23.85-.3,1.28-.85,1.28-1.66,0-.47-.21-.84-.63-1.1-.42-.25-1.08-.48-1.99-.67l-1.55-.34c-1.53-.34-2.57-.7-3.14-1.1-.97-.66-1.45-1.7-1.45-3.1,0-1.28.47-2.35,1.42-3.2.95-.85,2.33-1.27,4.16-1.27,1.53,0,2.83.4,3.91,1.2,1.08.8,1.65,1.96,1.7,3.49h-2.88c-.05-.86-.44-1.47-1.16-1.84-.48-.24-1.07-.36-1.78-.36-.79,0-1.42.16-1.89.47-.47.31-.71.75-.71,1.3,0,.51.23.89.7,1.15.3.17.93.37,1.9.59l2.52.59c1.1.26,1.93.61,2.48,1.04.85.67,1.28,1.65,1.28,2.93s-.51,2.4-1.52,3.26c-1.01.87-2.44,1.3-4.29,1.3s-3.37-.43-4.45-1.28-1.62-2.02-1.62-3.52h2.86Z"/>
        <path class="cls-1" d="M686.14,556.09h3.39l5.07,14.33h-3.25l-.95-2.95h-5.28l-.97,2.95h-3.13l5.12-14.33ZM685.94,565.01h3.67l-1.81-5.64-1.86,5.64Z"/>
        <path class="cls-1" d="M705.37,556.09v2.54h-4.29v11.8h-3.01v-11.8h-4.31v-2.54h11.61Z"/>
        <path class="cls-1" d="M709.85,570.42h-2.98v-14.33h2.98v14.33Z"/>
        <path class="cls-1" d="M723.69,569.15c-1.08,1.11-2.65,1.67-4.7,1.67s-3.61-.56-4.7-1.67c-1.45-1.37-2.18-3.34-2.18-5.91s.73-4.6,2.18-5.91c1.08-1.12,2.65-1.67,4.7-1.67s3.61.56,4.7,1.67c1.45,1.32,2.17,3.29,2.17,5.91s-.72,4.54-2.17,5.91ZM721.82,566.97c.7-.88,1.04-2.12,1.04-3.73s-.35-2.85-1.04-3.73c-.7-.88-1.64-1.32-2.83-1.32s-2.13.44-2.84,1.31c-.71.88-1.06,2.12-1.06,3.73s.35,2.86,1.06,3.73c.71.88,1.65,1.31,2.84,1.31s2.13-.44,2.83-1.31Z"/>
        <path class="cls-1" d="M728.1,556.09h3.14l5.69,10v-10h2.79v14.33h-2.99l-5.84-10.17v10.17h-2.79v-14.33Z"/>
      </g>
      <g>
        <circle class="cls-1" cx="371.98" cy="150.4" r="134.12"/>
        <circle class="cls-1" cx="371.98" cy="150.4" r="126.3"/>
        <g>
          <g>
            <path class="cls-1" d="M252.8,277.7l1.83-2.43c-59.59-44.99-75-145.48-31.71-206.77l-2.49-1.76c-44.16,62.53-28.44,165.06,32.37,210.96Z"/>
            <g>
              <g>
                <path class="cls-1" d="M224.74,229.88c-1.44,3.22-3.81,4.76-6.55,4.4-.97-4.49-.64-8.89,1.01-11.94,1.66-3.06,4.2-4.17,6.78-3.85.48,4.03.19,8.16-1.25,11.39Z"/>
                <path class="cls-1" d="M217.71,216.01c-1.61,3.11-3.99,4.52-6.59,4.02-.65-4.54-.04-8.93,1.76-11.88,1.81-2.95,4.35-3.89,6.84-3.39.18,4.04-.4,8.13-2.01,11.25Z"/>
                <path class="cls-1" d="M212.15,201.39c-1.78,3.01-4.18,4.29-6.67,3.68-.33-4.58.55-8.94,2.51-11.79,1.97-2.85,4.52-3.64,6.92-2.97-.12,4.03-.97,8.06-2.76,11.08Z"/>
                <path class="cls-1" d="M208.07,186.22c-1.96,2.91-4.39,4.08-6.78,3.37-.02-4.59,1.13-8.93,3.26-11.67,2.13-2.76,4.71-3.39,7.02-2.58-.4,4.01-1.54,7.97-3.5,10.88Z"/>
                <path class="cls-1" d="M205.51,170.69c-2.14,2.8-4.62,3.87-6.94,3.07.29-4.59,1.72-8.88,4.03-11.52,2.31-2.66,4.92-3.16,7.16-2.2-.69,3.97-2.1,7.85-4.25,10.65Z"/>
                <path class="cls-1" d="M204.46,155c-2.34,2.68-4.88,3.65-7.14,2.78.6-4.57,2.33-8.8,4.82-11.33,2.5-2.55,5.16-2.91,7.34-1.83-.99,3.91-2.68,7.69-5.02,10.38Z"/>
                <path class="cls-1" d="M204.95,139.36c-2.55,2.56-5.17,3.41-7.39,2.47.92-4.53,2.96-8.68,5.67-11.09,2.71-2.42,5.44-2.64,7.56-1.44-1.3,3.84-3.29,7.49-5.84,10.06Z"/>
                <path class="cls-1" d="M207,123.97c-2.79,2.41-5.5,3.14-7.69,2.13,1.25-4.47,3.63-8.51,6.58-10.78,2.95-2.28,5.76-2.35,7.83-1.02-1.62,3.74-3.93,7.25-6.72,9.67Z"/>
                <path class="cls-1" d="M210.62,109.02c-3.04,2.23-5.88,2.84-8.05,1.74,1.6-4.38,4.34-8.28,7.55-10.38,3.22-2.11,6.13-2.01,8.16-.55-1.97,3.61-4.62,6.95-7.66,9.19Z"/>
                <path class="cls-1" d="M215.83,94.73c-3.32,2.03-6.3,2.47-8.48,1.29,1.97-4.26,5.11-8,8.62-9.89,3.52-1.9,6.55-1.62,8.55-.02-2.35,3.45-5.36,6.58-8.69,8.62Z"/>
                <path class="cls-1" d="M222.65,81.29c-3.64,1.79-6.78,2.05-8.97.75,2.37-4.11,5.94-7.63,9.79-9.28,3.85-1.66,7.04-1.15,9.01.6-2.77,3.25-6.18,6.13-9.83,7.93Z"/>
              </g>
              <g>
                <path class="cls-1" d="M214.21,245.6c3.09-.46,4.88-2.95,5.47-6.23-3.19-2.62-6.67-4.31-9.78-4.14-3.1.18-5.16,2.29-5.81,5.74,3.3,3.32,7.04,5.09,10.12,4.62Z"/>
                <path class="cls-1" d="M205.68,229.68c3.19.32,5.34-1.56,6.39-4.46-2.85-3.15-6.12-5.53-9.27-6.13-3.15-.59-5.51.84-6.67,3.84,2.85,3.88,6.37,6.43,9.55,6.74Z"/>
                <path class="cls-1" d="M198.88,212.86c3.18,1.1,5.6-.12,7.04-2.57-2.46-3.63-5.44-6.65-8.54-8-3.09-1.35-5.65-.63-7.22,1.84,2.35,4.36,5.55,7.64,8.72,8.73Z"/>
                <path class="cls-1" d="M193.82,195.38c3.06,1.87,5.66,1.34,7.42-.62-2.02-4.04-4.65-7.64-7.59-9.73-2.94-2.08-5.6-2.1-7.49-.21,1.81,4.75,4.6,8.69,7.66,10.55Z"/>
                <path class="cls-1" d="M190.5,177.48c2.84,2.6,5.53,2.78,7.53,1.37-1.54-4.37-3.75-8.49-6.44-11.27-2.69-2.77-5.34-3.53-7.46-2.26,1.22,5.04,3.53,9.57,6.37,12.16Z"/>
                <path class="cls-1" d="M188.95,159.38c2.52,3.29,5.2,4.18,7.36,3.33-1.03-4.61-2.74-9.18-5.09-12.6-2.34-3.41-4.88-4.88-7.14-4.26.6,5.22,2.34,10.25,4.86,13.53Z"/>
                <path class="cls-1" d="M189.17,141.32c2.11,3.91,4.67,5.49,6.93,5.23-.49-4.78-1.65-9.7-3.56-13.69-1.91-3.98-4.23-6.12-6.53-6.16-.06,5.3,1.05,10.71,3.16,14.61Z"/>
                <path class="cls-1" d="M191.17,123.53c1.6,4.45,3.96,6.7,6.23,7.03.09-4.85-.47-10.03-1.86-14.51-1.39-4.46-3.38-7.23-5.64-7.91-.74,5.26-.33,10.95,1.27,15.39Z"/>
                <path class="cls-1" d="M194.96,106.23c1,4.9,3.05,7.76,5.25,8.67.68-4.83.78-10.17,0-15.03-.78-4.85-2.35-8.17-4.46-9.47-1.45,5.11-1.8,10.94-.8,15.82Z"/>
                <path class="cls-1" d="M200.57,89.67c.32,5.23,1.96,8.65,4.01,10.12,1.3-4.72,2.1-10.1,2.02-15.24-.09-5.12-1.14-8.91-3-10.79-2.17,4.83-3.35,10.68-3.03,15.9Z"/>
                <path class="cls-1" d="M207.99,74.06c-.46,5.44.69,9.34,2.51,11.33,1.92-4.51,3.48-9.82,4.16-15.11.68-5.28.25-9.43-1.27-11.82-2.9,4.44-4.95,10.16-5.4,15.59Z"/>
              </g>
            </g>
            <path class="cls-1" d="M229.33,62.58c-3.78,4.52-7.64,8.14-11.45,10.75,1.1-5.27,3.66-10.87,7.63-15.63,3.97-4.77,8.73-7.92,13.24-9.3-2.46,4.83-5.66,9.65-9.43,14.18Z"/>
          </g>
          <g>
            <path class="cls-1" d="M487.52,277.64l-1.81-2.45c59.97-44.49,76.22-144.84,33.45-206.5l2.5-1.73c43.64,62.9,27.05,165.29-34.14,210.68Z"/>
            <g>
              <g>
                <path class="cls-1" d="M515.98,230.06c1.41,3.23,3.77,4.79,6.51,4.46,1.01-4.48.72-8.89-.91-11.95-1.63-3.07-4.16-4.2-6.75-3.91-.52,4.02-.26,8.16,1.15,11.4Z"/>
                <path class="cls-1" d="M523.13,216.25c1.58,3.12,3.95,4.55,6.56,4.07.68-4.54.12-8.93-1.66-11.89-1.78-2.97-4.32-3.93-6.81-3.45-.21,4.03.33,8.13,1.92,11.26Z"/>
                <path class="cls-1" d="M528.82,201.67c1.76,3.02,4.14,4.33,6.64,3.74.37-4.58-.47-8.95-2.41-11.81-1.94-2.87-4.49-3.68-6.89-3.03.08,4.03.9,8.07,2.66,11.1Z"/>
                <path class="cls-1" d="M533.02,186.53c1.93,2.92,4.35,4.11,6.76,3.43.06-4.59-1.05-8.94-3.16-11.7-2.11-2.77-4.68-3.43-7-2.64.37,4.01,1.47,7.98,3.41,10.91Z"/>
                <path class="cls-1" d="M535.71,171.02c2.12,2.82,4.59,3.9,6.91,3.13-.25-4.59-1.65-8.89-3.93-11.56-2.29-2.67-4.89-3.2-7.14-2.26.66,3.98,2.04,7.86,4.16,10.69Z"/>
                <path class="cls-1" d="M536.89,155.35c2.32,2.7,4.85,3.69,7.11,2.84-.56-4.58-2.25-8.82-4.73-11.37-2.48-2.57-5.14-2.95-7.32-1.89.96,3.92,2.62,7.71,4.94,10.42Z"/>
                <path class="cls-1" d="M536.53,139.7c2.53,2.58,5.14,3.45,7.37,2.53-.88-4.54-2.89-8.7-5.58-11.13-2.69-2.44-5.42-2.69-7.55-1.5,1.26,3.85,3.22,7.52,5.76,10.11Z"/>
                <path class="cls-1" d="M534.61,124.3c2.76,2.43,5.48,3.19,7.67,2.19-1.21-4.48-3.56-8.54-6.48-10.83-2.93-2.3-5.74-2.4-7.82-1.09,1.59,3.75,3.87,7.28,6.63,9.72Z"/>
                <path class="cls-1" d="M531.11,109.32c3.02,2.26,5.85,2.88,8.04,1.81-1.56-4.39-4.27-8.32-7.47-10.44-3.2-2.14-6.11-2.06-8.15-.62,1.94,3.63,4.56,6.99,7.58,9.26Z"/>
                <path class="cls-1" d="M526.02,94.98c3.31,2.06,6.28,2.53,8.47,1.36-1.94-4.28-5.04-8.04-8.54-9.96-3.5-1.93-6.54-1.67-8.55-.09,2.32,3.47,5.31,6.63,8.62,8.69Z"/>
                <path class="cls-1" d="M519.32,81.49c3.62,1.82,6.76,2.1,8.96.83-2.34-4.13-5.88-7.68-9.71-9.36-3.84-1.69-7.03-1.2-9.02.52,2.74,3.27,6.13,6.18,9.76,8.01Z"/>
              </g>
              <g>
                <path class="cls-1" d="M526.38,245.86c-3.09-.49-4.85-2.99-5.42-6.27,3.21-2.59,6.7-4.25,9.81-4.05,3.1.2,5.14,2.34,5.77,5.79-3.33,3.29-7.08,5.03-10.16,4.53Z"/>
                <path class="cls-1" d="M535.04,230.01c-3.19.29-5.33-1.61-6.36-4.51,2.88-3.13,6.16-5.48,9.32-6.05,3.15-.56,5.5.89,6.63,3.9-2.89,3.86-6.42,6.38-9.6,6.66Z"/>
                <path class="cls-1" d="M541.98,213.25c-3.18,1.07-5.6-.17-7.02-2.63,2.49-3.61,5.5-6.61,8.61-7.93,3.1-1.32,5.66-.58,7.21,1.9-2.39,4.34-5.62,7.59-8.79,8.66Z"/>
                <path class="cls-1" d="M547.19,195.82c-3.07,1.84-5.67,1.29-7.42-.68,2.05-4.02,4.71-7.61,7.67-9.67,2.95-2.05,5.61-2.05,7.49-.15-1.85,4.73-4.68,8.66-7.74,10.49Z"/>
                <path class="cls-1" d="M550.66,177.94c-2.86,2.58-5.55,2.73-7.54,1.3,1.58-4.35,3.82-8.46,6.53-11.22,2.71-2.75,5.36-3.48,7.48-2.2-1.26,5.03-3.61,9.54-6.47,12.11Z"/>
                <path class="cls-1" d="M552.37,159.86c-2.55,3.27-5.23,4.13-7.39,3.27,1.07-4.61,2.82-9.16,5.2-12.56,2.37-3.39,4.92-4.84,7.18-4.2-.64,5.22-2.43,10.23-4.98,13.49Z"/>
                <path class="cls-1" d="M552.3,141.8c-2.14,3.89-4.72,5.45-6.97,5.18.53-4.77,1.73-9.69,3.67-13.66,1.94-3.96,4.28-6.09,6.58-6.1.02,5.3-1.14,10.7-3.28,14.59Z"/>
                <path class="cls-1" d="M550.45,123.99c-1.64,4.44-4.01,6.66-6.29,6.98-.04-4.85.55-10.03,1.98-14.49,1.43-4.45,3.44-7.2,5.71-7.86.7,5.27.24,10.95-1.4,15.38Z"/>
                <path class="cls-1" d="M546.8,106.66c-1.05,4.89-3.12,7.73-5.33,8.63-.64-4.84-.7-10.18.12-15.03.82-4.84,2.42-8.15,4.54-9.43,1.41,5.12,1.71,10.96.66,15.83Z"/>
                <path class="cls-1" d="M541.33,90.05c-.36,5.23-2.03,8.63-4.1,10.09-1.26-4.73-2.02-10.12-1.89-15.25.14-5.12,1.21-8.9,3.1-10.76,2.13,4.85,3.26,10.71,2.89,15.92Z"/>
                <path class="cls-1" d="M534.04,74.38c.41,5.44-.76,9.34-2.6,11.31-1.89-4.52-3.4-9.85-4.04-15.14-.63-5.28-.17-9.43,1.37-11.81,2.86,4.47,4.87,10.2,5.27,15.63Z"/>
              </g>
            </g>
            <path class="cls-1" d="M512.8,62.72c3.74,4.55,7.57,8.21,11.35,10.85-1.06-5.28-3.56-10.9-7.5-15.69-3.93-4.8-8.67-7.99-13.16-9.41,2.42,4.85,5.58,9.7,9.31,14.26Z"/>
          </g>
          <path class="cls-1" d="M371.97,0c-84.06,0-152.21,68.15-152.21,152.22s68.15,152.21,152.21,152.21,152.21-68.15,152.21-152.21S456.03,0,371.97,0ZM371.97,291.01c-77.5,0-140.33-62.83-140.33-140.33S294.47,10.34,371.97,10.34s140.33,62.83,140.33,140.34-62.82,140.33-140.33,140.33Z"/>
          <line class="cls-1" x1="535.58" y1="79.18" x2="535.25" y2="76.85"/>
          <g>
            <path class="cls-1" d="M272.24,287.43c.44-1.01.4-1.97-.12-2.88-.29-.51-.7-.96-1.23-1.35-1.01-.75-2.13-.98-3.34-.7-1.22.28-2.39,1.19-3.53,2.72-1.14,1.54-1.6,2.9-1.37,4.06.23,1.16.79,2.08,1.69,2.75.88.65,1.79.93,2.73.85.94-.09,1.78-.49,2.51-1.22l-2.91-2.15,1.55-2.1,5.24,3.88-5,6.75-1.74-1.29.9-1.77c-.95.22-1.71.3-2.3.25-1.01-.09-2.02-.51-3.03-1.26-1.67-1.23-2.6-2.82-2.81-4.77-.25-1.98.37-3.98,1.86-5.99,1.51-2.03,3.28-3.25,5.31-3.65,2.03-.4,3.97.09,5.81,1.45,1.6,1.18,2.58,2.54,2.95,4.07.37,1.53.18,2.95-.58,4.27l-2.58-1.91Z"/>
            <path class="cls-1" d="M288.58,292.51c.37.51.6,1.07.69,1.69.08.51.08,1.02,0,1.53-.08.51-.28,1.03-.6,1.56-.38.64-.92,1.17-1.61,1.59-.69.42-1.48.54-2.38.35.47.62.7,1.24.68,1.85-.02.61-.31,1.39-.87,2.33l-.54.9c-.37.61-.59,1.04-.67,1.29-.13.39-.11.75.06,1.08l-.2.34-3.1-1.85c.09-.35.18-.62.25-.83.15-.42.34-.83.57-1.23l.73-1.26c.5-.86.69-1.52.58-1.98-.11-.46-.56-.92-1.34-1.38l-2.74-1.64-3.15,5.26-2.74-1.64,8.04-13.43,6.42,3.84c.91.57,1.54,1.11,1.91,1.61ZM281.59,291.03l-2.16,3.61,3.02,1.81c.6.36,1.09.56,1.48.59.68.06,1.25-.28,1.7-1.04.49-.81.56-1.51.21-2.1-.19-.33-.58-.67-1.16-1.01l-3.1-1.85Z"/>
            <path class="cls-1" d="M298.32,312.88c-1.59.6-3.39.42-5.42-.53-2.02-.95-3.31-2.23-3.86-3.84-.8-2.03-.6-4.31.6-6.85,1.22-2.59,2.86-4.2,4.9-4.83,1.59-.6,3.39-.42,5.42.53,2.02.95,3.31,2.23,3.86,3.84.81,1.97.61,4.26-.61,6.85-1.2,2.54-2.83,4.15-4.89,4.83ZM297.48,309.86c1.1-.54,2.02-1.61,2.77-3.2.75-1.59.98-2.98.7-4.17s-1.01-2.06-2.18-2.62c-1.17-.55-2.31-.56-3.42-.03-1.1.54-2.03,1.6-2.78,3.2-.75,1.59-.98,2.99-.69,4.18.29,1.19,1.02,2.07,2.19,2.62,1.17.55,2.31.56,3.4.02Z"/>
            <path class="cls-1" d="M310.56,302.54l-.92,9.15-.37,2.51,1.21-2.17,4.56-7.97,3.27,1.11-1.11,9.08-.35,2.52,1.23-2.12,4.88-7.91,3.15,1.07-9.19,13.41-2.97-1,1.14-9.28.45-3.04-1.49,2.69-4.72,8.06-2.88-.97.82-16.25,3.29,1.11Z"/>
            <path class="cls-1" d="M338.92,310.55l-.61,2.7-4.57-1.04-2.86,12.56-3.21-.73,2.86-12.56-4.59-1.04.61-2.7,12.36,2.81Z"/>
            <path class="cls-1" d="M338.4,326.34l2.13-15.5,3.22.44-.81,5.91,6.03.83.81-5.91,3.22.44-2.13,15.5-3.22-.44.95-6.92-6.03-.83-.95,6.92-3.22-.44Z"/>
            <path class="cls-1" d="M363.9,313.25l2.15,8.94.47,2.49.43-2.45,1.69-9.03,3.45-.03,1.94,8.94.5,2.49.46-2.4,2-9.08,3.33-.03-4.26,15.69-3.13.03-1.97-9.13-.58-3.02-.52,3.03-1.81,9.17-3.04.03-4.58-15.61,3.47-.03Z"/>
            <path class="cls-1" d="M386.42,328l-3.24.29-1.39-15.59,3.24-.29,1.39,15.59Z"/>
            <path class="cls-1" d="M399.16,310.5l.4,2.74-4.63.69,1.88,12.74-3.26.48-1.88-12.74-4.65.69-.41-2.74,12.54-1.85Z"/>
            <path class="cls-1" d="M404.43,325.4l-3.63-15.22,3.16-.75,1.38,5.8,5.92-1.41-1.38-5.8,3.16-.75,3.63,15.22-3.16.75-1.62-6.79-5.92,1.41,1.62,6.79-3.16.75Z"/>
            <path class="cls-1" d="M427.04,319.27l-5.59-14.62,3.03-1.16,2.13,5.57,5.68-2.17-2.13-5.57,3.03-1.16,5.59,14.62-3.03,1.16-2.49-6.52-5.68,2.17,2.5,6.53-3.03,1.16Z"/>
            <path class="cls-1" d="M453.02,306.37c-.51,1.62-1.77,2.93-3.77,3.93-2,1-3.8,1.22-5.4.66-2.09-.62-3.76-2.19-5.02-4.71-1.28-2.56-1.54-4.84-.76-6.84.51-1.62,1.77-2.93,3.77-3.93,2-1,3.8-1.22,5.4-.66,2.05.58,3.72,2.15,5.01,4.71,1.26,2.51,1.51,4.79.77,6.83ZM450.12,305.16c.25-1.2-.02-2.58-.8-4.16-.79-1.57-1.73-2.61-2.84-3.13-1.11-.52-2.24-.49-3.4.09s-1.87,1.47-2.13,2.67c-.26,1.2,0,2.59.79,4.16s1.74,2.62,2.86,3.13c1.12.51,2.26.47,3.41-.11,1.16-.58,1.86-1.47,2.12-2.66Z"/>
            <path class="cls-1" d="M464.26,293.33c-.37,1.13-1.28,2.15-2.72,3.05l-2.76,1.73,2.99,4.77-2.75,1.72-8.31-13.26,5.69-3.57c1.31-.82,2.57-1.14,3.78-.94,1.21.19,2.26,1.01,3.16,2.44.98,1.57,1.29,2.92.92,4.05ZM459.16,289.88c-.54-.07-1.12.09-1.75.48l-2.5,1.56,2.45,3.9,2.5-1.56c.63-.4,1.02-.86,1.18-1.4.15-.54.01-1.15-.42-1.84-.43-.69-.92-1.07-1.45-1.15Z"/>
            <path class="cls-1" d="M473.57,278.91l-6.6,5,2.01,2.65,6.06-4.59,1.64,2.17-6.06,4.59,2.43,3.21,6.91-5.23,1.7,2.24-9.45,7.16-9.45-12.48,9.15-6.93,1.67,2.21Z"/>
          </g>
        </g>
      </g>
    </g>
  </g>
</svg>