<?xml version="1.0" encoding="UTF-8"?>
<svg id="Layer_2" data-name="Layer 2" xmlns="http://www.w3.org/2000/svg" viewBox="0 0 894.53 250.91">
  <defs>
    <style>
      .cls-1 {
        fill: #fff;
      }

      .cls-2 {
        fill: none;
      }

      .cls-3 {
        fill: #00aed9;
      }

      .cls-4 {
        fill: #279b48;
      }
    </style>
  </defs>
  <g id="Layer_1-2" data-name="Layer 1">
    <g>
      <g>
        <path class="cls-3" d="M0,72.9h20.95v60.6c0,6.78.8,11.73,2.4,14.85,2.49,5.53,7.91,8.29,16.27,8.29s13.72-2.76,16.21-8.29c1.6-3.12,2.4-8.07,2.4-14.85v-60.6h20.95v60.65c0,10.49-1.63,18.65-4.88,24.5-6.06,10.71-17.62,16.07-34.68,16.07s-28.65-5.36-34.75-16.07c-3.25-5.85-4.88-14.01-4.88-24.5v-60.65Z"/>
        <path class="cls-3" d="M108.43,83.21c7.95-8.12,18.06-12.18,30.33-12.18,16.42,0,28.43,5.45,36.03,16.33,4.19,6.11,6.44,12.25,6.75,18.41h-20.62c-1.31-4.73-3-8.3-5.05-10.71-3.67-4.28-9.12-6.43-16.33-6.43s-13.14,3.02-17.38,9.07c-4.24,6.05-6.36,14.6-6.36,25.67s2.24,19.36,6.71,24.87c4.47,5.51,10.16,8.27,17.06,8.27s12.46-2.36,16.17-7.09c2.05-2.54,3.75-6.36,5.11-11.45h20.48c-1.77,10.76-6.28,19.5-13.54,26.24-7.26,6.74-16.57,10.11-27.91,10.11-14.04,0-25.08-4.55-33.11-13.66-8.03-9.15-12.05-21.69-12.05-37.62,0-17.23,4.57-30.5,13.71-39.83Z"/>
        <path class="cls-3" d="M270.97,90.37h-52.21v20.95h47.93v17.14h-47.93v25.37h54.62v17.74h-74.77v-98.67h72.36v17.47Z"/>
        <path class="cls-3" d="M304.3,141.11c.64,4.51,1.89,7.88,3.76,10.11,3.42,4.06,9.27,6.09,17.56,6.09,4.97,0,9-.54,12.1-1.61,5.88-2.05,8.82-5.87,8.82-11.45,0-3.26-1.44-5.78-4.32-7.56-2.88-1.74-7.45-3.28-13.7-4.62l-10.68-2.34c-10.5-2.32-17.71-4.84-21.64-7.56-6.65-4.55-9.97-11.67-9.97-21.35,0-8.84,3.25-16.18,9.76-22.02,6.51-5.84,16.06-8.77,28.66-8.77,10.53,0,19.5,2.76,26.94,8.27,7.43,5.51,11.33,13.51,11.69,24h-19.81c-.37-5.93-3.02-10.15-7.96-12.65-3.29-1.65-7.39-2.48-12.28-2.48-5.45,0-9.79,1.07-13.04,3.21-3.25,2.14-4.87,5.13-4.87,8.97,0,3.53,1.6,6.16,4.8,7.9,2.06,1.16,6.43,2.52,13.11,4.08l17.31,4.08c7.59,1.79,13.28,4.17,17.07,7.16,5.88,4.64,8.82,11.36,8.82,20.15s-3.48,16.5-10.45,22.46c-6.97,5.96-16.81,8.94-29.53,8.94s-23.21-2.93-30.65-8.8c-7.44-5.87-11.16-13.93-11.16-24.2h19.68Z"/>
        <path class="cls-3" d="M390.3,83.21c7.95-8.12,18.06-12.18,30.33-12.18,16.42,0,28.43,5.45,36.03,16.33,4.19,6.11,6.44,12.25,6.75,18.41h-20.62c-1.31-4.73-3-8.3-5.05-10.71-3.67-4.28-9.12-6.43-16.33-6.43s-13.14,3.02-17.38,9.07c-4.24,6.05-6.36,14.6-6.36,25.67s2.24,19.36,6.71,24.87c4.47,5.51,10.16,8.27,17.06,8.27s12.46-2.36,16.17-7.09c2.05-2.54,3.75-6.36,5.11-11.45h20.48c-1.77,10.76-6.28,19.5-13.54,26.24-7.26,6.74-16.57,10.11-27.91,10.11-14.04,0-25.08-4.55-33.11-13.66-8.03-9.15-12.05-21.69-12.05-37.62,0-17.23,4.57-30.5,13.71-39.83Z"/>
        <path class="cls-3" d="M555.86,162.8c-7.45,7.68-18.23,11.51-32.33,11.51s-24.88-3.84-32.33-11.51c-10-9.42-14.99-22.98-14.99-40.7s5-31.64,14.99-40.7c7.45-7.67,18.23-11.51,32.33-11.51s24.88,3.84,32.33,11.51c9.95,9.06,14.93,22.62,14.93,40.7s-4.98,31.28-14.93,40.7ZM542.97,147.81c4.8-6.02,7.2-14.59,7.2-25.7s-2.4-19.62-7.2-25.67c-4.8-6.05-11.28-9.07-19.45-9.07s-14.68,3.01-19.55,9.04c-4.86,6.02-7.3,14.59-7.3,25.7s2.43,19.68,7.3,25.7c4.86,6.03,11.38,9.04,19.55,9.04s14.65-3.01,19.45-9.04Z"/>
      </g>
      <g>
        <path d="M1.48,194.04h2.32v6.72c0,.75.09,1.3.27,1.65.28.61.88.92,1.8.92s1.52-.31,1.8-.92c.18-.35.27-.89.27-1.65v-6.72h2.32v6.72c0,1.16-.18,2.07-.54,2.71-.67,1.19-1.95,1.78-3.84,1.78s-3.17-.59-3.85-1.78c-.36-.65-.54-1.55-.54-2.71v-6.72Z"/>
        <path d="M12.41,194.04h2.4l4.34,7.62v-7.62h2.13v10.93h-2.28l-4.45-7.76v7.76h-2.13v-10.93Z"/>
        <path d="M25.5,204.98h-2.27v-10.93h2.27v10.93Z"/>
        <path d="M35.59,194.04v1.94h-3.27v9h-2.3v-9h-3.29v-1.94h8.86Z"/>
        <path d="M45.01,195.98h-5.79v2.32h5.31v1.9h-5.31v2.81h6.05v1.97h-8.29v-10.93h8.02v1.94Z"/>
        <path d="M53.46,194.28c.77.25,1.39.71,1.86,1.39.38.54.64,1.13.78,1.77.14.63.21,1.24.21,1.81,0,1.45-.29,2.69-.88,3.69-.79,1.36-2.01,2.04-3.67,2.04h-4.71v-10.93h4.71c.68,0,1.24.09,1.69.24ZM49.27,195.94v7.14h2.11c1.08,0,1.83-.53,2.26-1.59.23-.58.35-1.28.35-2.08,0-1.11-.17-1.97-.52-2.56-.35-.6-1.04-.89-2.08-.89h-2.11Z"/>
        <path d="M63.29,195.18c.88-.9,2-1.35,3.36-1.35,1.82,0,3.15.6,3.99,1.81.46.68.71,1.36.75,2.04h-2.29c-.15-.52-.33-.92-.56-1.19-.41-.47-1.01-.71-1.81-.71s-1.46.33-1.93,1c-.47.67-.7,1.62-.7,2.84s.25,2.15.74,2.76c.5.61,1.13.92,1.89.92s1.38-.26,1.79-.79c.23-.28.42-.71.57-1.27h2.27c-.2,1.19-.7,2.16-1.5,2.91-.8.75-1.84,1.12-3.09,1.12-1.56,0-2.78-.5-3.67-1.51-.89-1.01-1.34-2.4-1.34-4.17,0-1.91.51-3.38,1.52-4.41Z"/>
        <path d="M73.22,194.04h2.32v6.72c0,.75.09,1.3.27,1.65.28.61.88.92,1.8.92s1.52-.31,1.8-.92c.18-.35.27-.89.27-1.65v-6.72h2.32v6.72c0,1.16-.18,2.07-.54,2.71-.67,1.19-1.95,1.78-3.84,1.78s-3.17-.59-3.85-1.78c-.36-.65-.54-1.55-.54-2.71v-6.72Z"/>
        <path d="M84.19,194.04h2.29v8.97h5.46v1.97h-7.75v-10.93Z"/>
        <path d="M100.3,194.04v1.94h-3.27v9h-2.3v-9h-3.29v-1.94h8.86Z"/>
        <path d="M101.64,194.04h2.32v6.72c0,.75.09,1.3.27,1.65.28.61.88.92,1.8.92s1.52-.31,1.8-.92c.18-.35.27-.89.27-1.65v-6.72h2.32v6.72c0,1.16-.18,2.07-.54,2.71-.67,1.19-1.95,1.78-3.84,1.78s-3.17-.59-3.85-1.78c-.36-.65-.54-1.55-.54-2.71v-6.72Z"/>
        <path d="M119.62,194.32c.4.17.74.43,1.02.76.23.28.42.58.55.92.14.34.2.72.2,1.15,0,.52-.13,1.03-.39,1.53s-.69.86-1.3,1.06c.5.2.86.49,1.07.86.21.37.32.94.32,1.71v.73c0,.5.02.84.06,1.02.06.28.2.49.42.62v.27h-2.52c-.07-.24-.12-.44-.15-.59-.06-.31-.09-.62-.1-.94l-.02-1.02c0-.7-.13-1.16-.36-1.39s-.67-.35-1.3-.35h-2.23v4.29h-2.23v-10.93h5.23c.75.01,1.32.11,1.73.28ZM114.89,195.94v2.94h2.46c.49,0,.85-.06,1.1-.18.43-.21.65-.62.65-1.23,0-.66-.21-1.11-.63-1.33-.23-.13-.59-.19-1.06-.19h-2.52Z"/>
        <path d="M126.71,194.04h2.59l3.87,10.93h-2.48l-.72-2.25h-4.03l-.74,2.25h-2.39l3.9-10.93ZM126.56,200.85h2.8l-1.38-4.3-1.42,4.3Z"/>
        <path d="M134.55,194.04h2.29v8.97h5.46v1.97h-7.75v-10.93Z"/>
        <path d="M155.87,195.98h-5.79v2.32h5.31v1.9h-5.31v2.81h6.05v1.97h-8.29v-10.93h8.02v1.94Z"/>
        <path d="M165.17,194.04h3.29v10.93h-2.13v-7.4c0-.21,0-.51,0-.89,0-.38,0-.68,0-.89l-2.07,9.18h-2.22l-2.06-9.18c0,.21,0,.5,0,.89,0,.38,0,.68,0,.89v7.4h-2.13v-10.93h3.33l1.99,8.6,1.98-8.6Z"/>
        <path d="M177.92,200.24c-.64.53-1.55.8-2.74.8h-2.28v3.93h-2.27v-10.93h4.69c1.08,0,1.95.28,2.59.85.64.56.97,1.44.97,2.62,0,1.29-.32,2.2-.96,2.74ZM176.17,196.31c-.29-.24-.69-.36-1.22-.36h-2.06v3.22h2.06c.52,0,.93-.13,1.22-.39.29-.26.43-.68.43-1.25s-.14-.97-.43-1.22Z"/>
        <path d="M189.13,204.01c-.83.85-2.02,1.28-3.58,1.28s-2.76-.42-3.58-1.28c-1.11-1.04-1.66-2.55-1.66-4.51s.55-3.51,1.66-4.51c.83-.85,2.02-1.28,3.58-1.28s2.76.42,3.58,1.28c1.1,1,1.65,2.51,1.65,4.51s-.55,3.47-1.65,4.51ZM187.7,202.34c.53-.67.8-1.62.8-2.85s-.27-2.17-.8-2.84-1.25-1.01-2.16-1.01-1.63.33-2.17,1-.81,1.62-.81,2.85.27,2.18.81,2.85,1.26,1,2.17,1,1.62-.33,2.16-1Z"/>
        <path d="M194.02,194.04l1.44,6.26.31,1.74.32-1.71,1.24-6.3h2.41l1.3,6.26.33,1.74.34-1.68,1.46-6.33h2.33l-3.08,10.93h-2.19l-1.32-6.39-.39-2.11-.39,2.11-1.32,6.39h-2.12l-3.1-10.93h2.43Z"/>
        <path d="M214.96,195.98h-5.79v2.32h5.31v1.9h-5.31v2.81h6.05v1.97h-8.29v-10.93h8.02v1.94Z"/>
        <path d="M224.01,194.32c.4.17.74.43,1.02.76.23.28.42.58.55.92.14.34.2.72.2,1.15,0,.52-.13,1.03-.39,1.53s-.69.86-1.3,1.06c.5.2.86.49,1.07.86.21.37.32.94.32,1.71v.73c0,.5.02.84.06,1.02.06.28.2.49.42.62v.27h-2.52c-.07-.24-.12-.44-.15-.59-.06-.31-.09-.62-.1-.94l-.02-1.02c0-.7-.13-1.16-.36-1.39s-.67-.35-1.3-.35h-2.23v4.29h-2.23v-10.93h5.23c.75.01,1.32.11,1.73.28ZM219.29,195.94v2.94h2.46c.49,0,.85-.06,1.1-.18.43-.21.65-.62.65-1.23,0-.66-.21-1.11-.63-1.33-.23-.13-.59-.19-1.06-.19h-2.52Z"/>
        <path d="M235.23,194.04h3.29v10.93h-2.13v-7.4c0-.21,0-.51,0-.89,0-.38,0-.68,0-.89l-2.07,9.18h-2.22l-2.06-9.18c0,.21,0,.5,0,.89,0,.38,0,.68,0,.89v7.4h-2.13v-10.93h3.33l1.99,8.6,1.98-8.6Z"/>
        <path d="M248.72,195.98h-5.79v2.32h5.31v1.9h-5.31v2.81h6.05v1.97h-8.29v-10.93h8.02v1.94Z"/>
        <path d="M250.73,194.04h2.4l4.34,7.62v-7.62h2.13v10.93h-2.28l-4.45-7.76v7.76h-2.13v-10.93Z"/>
        <path d="M269.68,194.04v1.94h-3.27v9h-2.3v-9h-3.29v-1.94h8.86Z"/>
        <path d="M275.39,200.41c.33-.47.86-.94,1.6-1.4l.23-.14c-.32-.36-.56-.72-.73-1.09-.17-.37-.26-.76-.26-1.16,0-.8.27-1.42.81-1.87.54-.45,1.24-.67,2.1-.67.79,0,1.44.23,1.95.69.51.46.77,1.05.77,1.76,0,.64-.15,1.17-.46,1.57-.31.4-.76.77-1.35,1.12l1.57,1.91c.18-.26.32-.54.42-.84s.15-.62.15-.96h1.88c-.03.67-.19,1.34-.48,2.02-.16.38-.41.8-.77,1.27l1.98,2.37h-2.56l-.76-.93c-.37.34-.71.6-1.03.76-.57.29-1.23.44-1.97.44-1.12,0-2-.33-2.62-.98-.63-.65-.94-1.38-.94-2.17,0-.66.16-1.22.49-1.69ZM277.46,203.03c.3.3.68.45,1.15.45.35,0,.69-.08,1-.24.31-.16.57-.34.77-.53l-2.05-2.49c-.54.35-.89.66-1.06.93-.17.27-.26.56-.26.88,0,.36.15.69.45,1ZM278.39,197.17c.09.14.29.4.6.77.31-.21.53-.38.66-.53.26-.27.38-.56.38-.87,0-.23-.08-.43-.23-.61-.15-.18-.39-.27-.7-.27-.19,0-.38.05-.55.16-.26.15-.38.4-.38.73,0,.2.07.41.22.62Z"/>
        <path d="M292.08,201.6c.07.5.21.87.42,1.12.38.45,1.03.67,1.95.67.55,0,1-.06,1.34-.18.65-.23.98-.65.98-1.27,0-.36-.16-.64-.48-.84-.32-.19-.83-.36-1.52-.51l-1.18-.26c-1.16-.26-1.96-.54-2.4-.84-.74-.5-1.11-1.29-1.11-2.37,0-.98.36-1.79,1.08-2.44.72-.65,1.78-.97,3.18-.97,1.17,0,2.16.31,2.98.92.82.61,1.26,1.5,1.3,2.66h-2.2c-.04-.66-.33-1.12-.88-1.4-.36-.18-.82-.27-1.36-.27-.6,0-1.08.12-1.44.36-.36.24-.54.57-.54.99,0,.39.18.68.53.88.23.13.71.28,1.45.45l1.92.45c.84.2,1.47.46,1.89.79.65.51.98,1.26.98,2.23s-.39,1.83-1.16,2.49c-.77.66-1.86.99-3.27.99s-2.57-.33-3.4-.98-1.24-1.54-1.24-2.68h2.18Z"/>
        <path d="M308.99,204.01c-.83.85-2.02,1.28-3.58,1.28s-2.76-.42-3.58-1.28c-1.11-1.04-1.66-2.55-1.66-4.51s.55-3.51,1.66-4.51c.83-.85,2.02-1.28,3.58-1.28s2.76.42,3.58,1.28c1.1,1,1.65,2.51,1.65,4.51s-.55,3.47-1.65,4.51ZM307.56,202.34c.53-.67.8-1.62.8-2.85s-.27-2.17-.8-2.84-1.25-1.01-2.16-1.01-1.63.33-2.17,1-.81,1.62-.81,2.85.27,2.18.81,2.85,1.26,1,2.17,1,1.62-.33,2.16-1Z"/>
        <path d="M313.43,195.18c.88-.9,2-1.35,3.36-1.35,1.82,0,3.15.6,3.99,1.81.46.68.71,1.36.75,2.04h-2.29c-.15-.52-.33-.92-.56-1.19-.41-.47-1.01-.71-1.81-.71s-1.46.33-1.93,1c-.47.67-.7,1.62-.7,2.84s.25,2.15.74,2.76c.5.61,1.13.92,1.89.92s1.38-.26,1.79-.79c.23-.28.42-.71.57-1.27h2.27c-.2,1.19-.7,2.16-1.5,2.91-.8.75-1.84,1.12-3.09,1.12-1.56,0-2.78-.5-3.67-1.51-.89-1.01-1.34-2.4-1.34-4.17,0-1.91.51-3.38,1.52-4.41Z"/>
        <path d="M325.44,204.98h-2.27v-10.93h2.27v10.93Z"/>
        <path d="M330.7,194.04h2.59l3.87,10.93h-2.48l-.72-2.25h-4.03l-.74,2.25h-2.39l3.9-10.93ZM330.55,200.85h2.8l-1.38-4.3-1.42,4.3Z"/>
        <path d="M338.55,194.04h2.29v8.97h5.46v1.97h-7.75v-10.93Z"/>
        <path d="M352.83,195.18c.88-.9,2-1.35,3.36-1.35,1.82,0,3.15.6,3.99,1.81.46.68.71,1.36.75,2.04h-2.29c-.15-.52-.33-.92-.56-1.19-.41-.47-1.01-.71-1.81-.71s-1.46.33-1.93,1c-.47.67-.7,1.62-.7,2.84s.25,2.15.74,2.76c.5.61,1.13.92,1.89.92s1.38-.26,1.79-.79c.23-.28.42-.71.57-1.27h2.27c-.2,1.19-.7,2.16-1.5,2.91-.8.75-1.84,1.12-3.09,1.12-1.56,0-2.78-.5-3.67-1.51-.89-1.01-1.34-2.4-1.34-4.17,0-1.91.51-3.38,1.52-4.41Z"/>
        <path d="M371.18,204.01c-.83.85-2.02,1.28-3.58,1.28s-2.76-.42-3.58-1.28c-1.11-1.04-1.66-2.55-1.66-4.51s.55-3.51,1.66-4.51c.83-.85,2.02-1.28,3.58-1.28s2.76.42,3.58,1.28c1.1,1,1.65,2.51,1.65,4.51s-.55,3.47-1.65,4.51ZM369.75,202.34c.53-.67.8-1.62.8-2.85s-.27-2.17-.8-2.84-1.25-1.01-2.16-1.01-1.63.33-2.17,1-.81,1.62-.81,2.85.27,2.18.81,2.85,1.26,1,2.17,1,1.62-.33,2.16-1Z"/>
        <path d="M381.83,194.04h3.29v10.93h-2.13v-7.4c0-.21,0-.51,0-.89,0-.38,0-.68,0-.89l-2.07,9.18h-2.22l-2.06-9.18c0,.21,0,.5,0,.89,0,.38,0,.68,0,.89v7.4h-2.13v-10.93h3.33l1.99,8.6,1.98-8.6Z"/>
        <path d="M394.48,194.04h3.29v10.93h-2.13v-7.4c0-.21,0-.51,0-.89,0-.38,0-.68,0-.89l-2.07,9.18h-2.22l-2.06-9.18c0,.21,0,.5,0,.89,0,.38,0,.68,0,.89v7.4h-2.13v-10.93h3.33l1.99,8.6,1.98-8.6Z"/>
        <path d="M399.89,194.04h2.32v6.72c0,.75.09,1.3.27,1.65.28.61.88.92,1.8.92s1.52-.31,1.8-.92c.18-.35.27-.89.27-1.65v-6.72h2.32v6.72c0,1.16-.18,2.07-.54,2.71-.67,1.19-1.95,1.78-3.84,1.78s-3.17-.59-3.85-1.78c-.36-.65-.54-1.55-.54-2.71v-6.72Z"/>
        <path d="M410.82,194.04h2.4l4.34,7.62v-7.62h2.13v10.93h-2.28l-4.45-7.76v7.76h-2.13v-10.93Z"/>
        <path d="M423.92,204.98h-2.27v-10.93h2.27v10.93Z"/>
        <path d="M434,194.04v1.94h-3.27v9h-2.3v-9h-3.29v-1.94h8.86Z"/>
        <path d="M441.57,194.04h2.59l-3.66,6.83v4.1h-2.29v-4.1l-3.78-6.83h2.69l2.27,4.76,2.17-4.76Z"/>
        <path d="M457.84,204.01c-.83.85-2.02,1.28-3.58,1.28s-2.76-.42-3.58-1.28c-1.11-1.04-1.66-2.55-1.66-4.51s.55-3.51,1.66-4.51c.83-.85,2.02-1.28,3.58-1.28s2.76.42,3.58,1.28c1.1,1,1.65,2.51,1.65,4.51s-.55,3.47-1.65,4.51ZM456.41,202.34c.53-.67.8-1.62.8-2.85s-.27-2.17-.8-2.84-1.25-1.01-2.16-1.01-1.63.33-2.17,1-.81,1.62-.81,2.85.27,2.18.81,2.85,1.26,1,2.17,1,1.62-.33,2.16-1Z"/>
        <path d="M468.25,194.32c.4.17.74.43,1.02.76.23.28.42.58.55.92.14.34.2.72.2,1.15,0,.52-.13,1.03-.39,1.53s-.69.86-1.3,1.06c.5.2.86.49,1.07.86.21.37.32.94.32,1.71v.73c0,.5.02.84.06,1.02.06.28.2.49.42.62v.27h-2.52c-.07-.24-.12-.44-.15-.59-.06-.31-.09-.62-.1-.94l-.02-1.02c0-.7-.13-1.16-.36-1.39s-.67-.35-1.3-.35h-2.23v4.29h-2.23v-10.93h5.23c.75.01,1.32.11,1.73.28ZM463.52,195.94v2.94h2.46c.49,0,.85-.06,1.1-.18.43-.21.65-.62.65-1.23,0-.66-.21-1.11-.63-1.33-.23-.13-.59-.19-1.06-.19h-2.52Z"/>
        <path d="M479.56,197.46c-.17-.75-.6-1.27-1.27-1.57-.38-.16-.79-.25-1.25-.25-.88,0-1.6.33-2.17,1s-.85,1.66-.85,3,.31,2.29.92,2.85,1.31.84,2.09.84,1.39-.22,1.88-.66c.49-.44.79-1.02.9-1.73h-2.53v-1.83h4.55v5.87h-1.51l-.23-1.37c-.44.52-.84.88-1.19,1.09-.6.37-1.35.55-2.23.55-1.45,0-2.64-.5-3.56-1.5-.96-1.01-1.45-2.39-1.45-4.14s.49-3.19,1.46-4.25c.97-1.07,2.26-1.6,3.86-1.6,1.39,0,2.51.35,3.35,1.06.84.71,1.33,1.58,1.45,2.64h-2.25Z"/>
        <path d="M487.16,194.04h2.59l3.87,10.93h-2.48l-.72-2.25h-4.03l-.74,2.25h-2.39l3.9-10.93ZM487.01,200.85h2.8l-1.38-4.3-1.42,4.3Z"/>
        <path d="M494.96,194.04h2.4l4.34,7.62v-7.62h2.13v10.93h-2.28l-4.45-7.76v7.76h-2.13v-10.93Z"/>
        <path d="M508.06,204.98h-2.27v-10.93h2.27v10.93Z"/>
        <path d="M511.84,201.6c.07.5.21.87.42,1.12.38.45,1.03.67,1.95.67.55,0,1-.06,1.34-.18.65-.23.98-.65.98-1.27,0-.36-.16-.64-.48-.84-.32-.19-.83-.36-1.52-.51l-1.18-.26c-1.16-.26-1.96-.54-2.4-.84-.74-.5-1.11-1.29-1.11-2.37,0-.98.36-1.79,1.08-2.44.72-.65,1.78-.97,3.18-.97,1.17,0,2.16.31,2.98.92.82.61,1.26,1.5,1.3,2.66h-2.2c-.04-.66-.33-1.12-.88-1.4-.36-.18-.82-.27-1.36-.27-.6,0-1.08.12-1.44.36-.36.24-.54.57-.54.99,0,.39.18.68.53.88.23.13.71.28,1.45.45l1.92.45c.84.2,1.47.46,1.89.79.65.51.98,1.26.98,2.23s-.39,1.83-1.16,2.49c-.77.66-1.86.99-3.27.99s-2.57-.33-3.4-.98-1.24-1.54-1.24-2.68h2.18Z"/>
        <path d="M523.46,194.04h2.59l3.87,10.93h-2.48l-.72-2.25h-4.03l-.74,2.25h-2.39l3.9-10.93ZM523.3,200.85h2.8l-1.38-4.3-1.42,4.3Z"/>
        <path d="M538.13,194.04v1.94h-3.27v9h-2.3v-9h-3.29v-1.94h8.86Z"/>
        <path d="M541.55,204.98h-2.27v-10.93h2.27v10.93Z"/>
        <path d="M552.1,204.01c-.83.85-2.02,1.28-3.58,1.28s-2.76-.42-3.58-1.28c-1.11-1.04-1.66-2.55-1.66-4.51s.55-3.51,1.66-4.51c.83-.85,2.02-1.28,3.58-1.28s2.76.42,3.58,1.28c1.1,1,1.65,2.51,1.65,4.51s-.55,3.47-1.65,4.51ZM550.67,202.34c.53-.67.8-1.62.8-2.85s-.27-2.17-.8-2.84-1.25-1.01-2.16-1.01-1.63.33-2.17,1-.81,1.62-.81,2.85.27,2.18.81,2.85,1.26,1,2.17,1,1.62-.33,2.16-1Z"/>
        <path d="M555.46,194.04h2.4l4.34,7.62v-7.62h2.13v10.93h-2.28l-4.45-7.76v7.76h-2.13v-10.93Z"/>
      </g>
      <g>
        <g>
          <circle class="cls-3" cx="753.11" cy="114.74" r="102.32"/>
          <circle class="cls-1" cx="753.11" cy="114.74" r="96.35"/>
          <g>
            <g>
              <path class="cls-4" d="M662.2,211.86l1.4-1.85c-45.46-34.32-57.22-110.98-24.19-157.75l-1.9-1.34c-33.69,47.71-21.69,125.92,24.69,160.94Z"/>
              <g>
                <g>
                  <path class="cls-4" d="M640.79,175.38c-1.1,2.45-2.91,3.63-4.99,3.36-.74-3.43-.49-6.78.77-9.11,1.26-2.33,3.2-3.18,5.17-2.94.37,3.07.15,6.23-.95,8.69Z"/>
                  <path class="cls-4" d="M635.42,164.8c-1.23,2.37-3.04,3.44-5.03,3.07-.49-3.47-.03-6.81,1.35-9.06,1.38-2.25,3.32-2.97,5.22-2.59.14,3.08-.3,6.2-1.53,8.58Z"/>
                  <path class="cls-4" d="M631.18,153.64c-1.36,2.3-3.19,3.27-5.09,2.81-.25-3.49.42-6.82,1.91-8.99,1.5-2.18,3.45-2.77,5.28-2.27-.09,3.08-.74,6.15-2.1,8.45Z"/>
                  <path class="cls-4" d="M628.07,142.06c-1.49,2.22-3.35,3.11-5.18,2.57-.02-3.5.86-6.81,2.49-8.91,1.63-2.1,3.59-2.59,5.36-1.97-.31,3.06-1.17,6.08-2.67,8.3Z"/>
                  <path class="cls-4" d="M626.11,130.21c-1.64,2.14-3.52,2.95-5.29,2.34.22-3.5,1.31-6.77,3.07-8.79,1.76-2.03,3.75-2.41,5.46-1.68-.53,3.03-1.6,5.99-3.24,8.13Z"/>
                  <path class="cls-4" d="M625.31,118.25c-1.79,2.05-3.72,2.78-5.45,2.12.46-3.49,1.78-6.71,3.68-8.65,1.91-1.94,3.94-2.22,5.6-1.4-.75,2.99-2.05,5.87-3.83,7.92Z"/>
                  <path class="cls-4" d="M625.69,106.32c-1.95,1.95-3.95,2.6-5.64,1.88.7-3.46,2.26-6.62,4.33-8.46,2.07-1.85,4.15-2.02,5.77-1.1-.99,2.93-2.51,5.72-4.46,7.67Z"/>
                  <path class="cls-4" d="M627.25,94.57c-2.12,1.84-4.2,2.4-5.87,1.62.96-3.41,2.77-6.49,5.02-8.22,2.25-1.74,4.39-1.79,5.97-.78-1.24,2.85-3,5.53-5.12,7.38Z"/>
                  <path class="cls-4" d="M630.02,83.17c-2.32,1.7-4.48,2.16-6.14,1.33,1.22-3.34,3.31-6.32,5.76-7.92,2.45-1.61,4.68-1.53,6.22-.42-1.5,2.75-3.52,5.3-5.84,7.01Z"/>
                  <path class="cls-4" d="M633.99,72.27c-2.54,1.55-4.81,1.89-6.47.98,1.51-3.25,3.9-6.1,6.58-7.54,2.68-1.45,5-1.23,6.52-.02-1.79,2.63-4.09,5.02-6.63,6.58Z"/>
                  <path class="cls-4" d="M639.19,62.01c-2.78,1.36-5.17,1.56-6.84.57,1.81-3.14,4.53-5.82,7.47-7.08,2.94-1.26,5.37-.87,6.87.46-2.11,2.48-4.72,4.68-7.5,6.05Z"/>
                </g>
                <g>
                  <path class="cls-4" d="M632.75,187.37c2.36-.35,3.72-2.25,4.17-4.75-2.44-2-5.09-3.29-7.46-3.15-2.37.13-3.94,1.75-4.44,4.38,2.52,2.53,5.37,3.88,7.72,3.52Z"/>
                  <path class="cls-4" d="M626.25,175.22c2.43.24,4.07-1.19,4.88-3.4-2.17-2.41-4.67-4.22-7.07-4.67-2.4-.45-4.2.64-5.09,2.93,2.18,2.96,4.86,4.91,7.28,5.14Z"/>
                  <path class="cls-4" d="M621.06,162.39c2.42.84,4.27-.09,5.37-1.96-1.87-2.77-4.15-5.07-6.51-6.11-2.36-1.03-4.31-.48-5.51,1.41,1.8,3.33,4.24,5.83,6.65,6.66Z"/>
                  <path class="cls-4" d="M617.2,149.06c2.33,1.43,4.32,1.02,5.66-.47-1.54-3.08-3.55-5.83-5.79-7.42-2.24-1.59-4.27-1.6-5.71-.16,1.38,3.62,3.51,6.63,5.84,8.05Z"/>
                  <path class="cls-4" d="M614.67,135.4c2.17,1.99,4.22,2.12,5.74,1.04-1.18-3.33-2.86-6.48-4.91-8.6-2.05-2.11-4.07-2.69-5.69-1.72.93,3.84,2.69,7.3,4.86,9.28Z"/>
                  <path class="cls-4" d="M613.48,121.59c1.93,2.51,3.96,3.19,5.62,2.54-.79-3.52-2.09-7.01-3.88-9.61-1.79-2.6-3.72-3.72-5.45-3.25.45,3.98,1.79,7.82,3.71,10.32Z"/>
                  <path class="cls-4" d="M613.65,107.81c1.61,2.98,3.56,4.19,5.29,3.99-.37-3.65-1.26-7.4-2.72-10.44-1.46-3.03-3.22-4.67-4.98-4.7-.05,4.04.8,8.17,2.41,11.15Z"/>
                  <path class="cls-4" d="M615.17,94.24c1.22,3.4,3.02,5.11,4.75,5.36.07-3.7-.36-7.65-1.42-11.07-1.06-3.4-2.58-5.52-4.3-6.03-.57,4.01-.25,8.35.97,11.74Z"/>
                  <path class="cls-4" d="M618.07,81.04c.77,3.73,2.33,5.92,4.01,6.62.52-3.69.6-7.76,0-11.47-.6-3.7-1.79-6.23-3.41-7.22-1.11,3.9-1.37,8.35-.61,12.07Z"/>
                  <path class="cls-4" d="M622.35,68.41c.24,3.99,1.5,6.6,3.06,7.72.99-3.6,1.6-7.71,1.54-11.62-.07-3.91-.87-6.8-2.29-8.23-1.65,3.69-2.55,8.15-2.31,12.13Z"/>
                  <path class="cls-4" d="M628.01,56.5c-.35,4.15.52,7.13,1.91,8.65,1.47-3.44,2.66-7.49,3.18-11.52.52-4.03.19-7.19-.97-9.02-2.21,3.39-3.78,7.75-4.12,11.89Z"/>
                </g>
              </g>
              <path class="cls-4" d="M644.29,47.74c-2.88,3.45-5.83,6.21-8.73,8.2.84-4.02,2.79-8.29,5.82-11.92,3.03-3.64,6.66-6.04,10.1-7.1-1.88,3.69-4.32,7.36-7.19,10.82Z"/>
            </g>
            <g>
              <path class="cls-4" d="M841.26,211.81l-1.38-1.87c45.75-33.94,58.15-110.5,25.52-157.54l1.91-1.32c33.29,47.99,20.64,126.1-26.04,160.73Z"/>
              <g>
                <g>
                  <path class="cls-4" d="M862.97,175.51c1.08,2.46,2.87,3.65,4.97,3.4.77-3.42.55-6.78-.7-9.12-1.24-2.34-3.18-3.21-5.15-2.98-.39,3.07-.2,6.23.88,8.7Z"/>
                  <path class="cls-4" d="M868.43,164.97c1.21,2.38,3.01,3.47,5,3.11.52-3.46.09-6.81-1.27-9.07-1.36-2.26-3.3-3-5.2-2.63-.16,3.08.25,6.2,1.46,8.59Z"/>
                  <path class="cls-4" d="M872.76,153.85c1.34,2.31,3.16,3.3,5.07,2.85.28-3.49-.36-6.83-1.84-9.01-1.48-2.19-3.43-2.8-5.26-2.31.06,3.08.69,6.16,2.03,8.47Z"/>
                  <path class="cls-4" d="M875.97,142.3c1.48,2.23,3.32,3.14,5.15,2.61.04-3.5-.8-6.82-2.41-8.93-1.61-2.12-3.57-2.62-5.34-2.01.28,3.06,1.12,6.09,2.6,8.33Z"/>
                  <path class="cls-4" d="M878.03,130.47c1.62,2.15,3.5,2.98,5.27,2.39-.19-3.5-1.26-6.78-3-8.82-1.74-2.04-3.73-2.44-5.45-1.73.5,3.03,1.55,6,3.17,8.16Z"/>
                  <path class="cls-4" d="M878.92,118.51c1.77,2.06,3.7,2.81,5.43,2.17-.43-3.49-1.72-6.73-3.61-8.68-1.89-1.96-3.92-2.25-5.59-1.44.73,2.99,2,5.88,3.77,7.95Z"/>
                  <path class="cls-4" d="M878.65,106.58c1.93,1.97,3.92,2.63,5.62,1.93-.67-3.46-2.2-6.64-4.25-8.49-2.05-1.86-4.13-2.05-5.76-1.15.96,2.94,2.46,5.74,4.39,7.71Z"/>
                  <path class="cls-4" d="M877.18,94.82c2.11,1.85,4.18,2.43,5.85,1.67-.93-3.42-2.71-6.51-4.95-8.26-2.24-1.76-4.38-1.83-5.97-.83,1.21,2.86,2.95,5.56,5.06,7.42Z"/>
                  <path class="cls-4" d="M874.52,83.4c2.31,1.72,4.47,2.2,6.13,1.38-1.19-3.35-3.26-6.35-5.7-7.97-2.44-1.63-4.66-1.57-6.22-.48,1.48,2.77,3.48,5.33,5.78,7.06Z"/>
                  <path class="cls-4" d="M870.63,72.46c2.52,1.57,4.79,1.93,6.46,1.04-1.48-3.26-3.85-6.13-6.51-7.6-2.67-1.47-4.99-1.27-6.52-.07,1.77,2.65,4.05,5.06,6.58,6.63Z"/>
                  <path class="cls-4" d="M865.52,62.17c2.76,1.39,5.16,1.6,6.84.63-1.78-3.15-4.48-5.86-7.41-7.14-2.93-1.29-5.37-.92-6.88.4,2.09,2.49,4.68,4.72,7.45,6.11Z"/>
                </g>
                <g>
                  <path class="cls-4" d="M870.9,187.57c-2.36-.37-3.7-2.28-4.13-4.78,2.45-1.98,5.11-3.24,7.49-3.09,2.36.15,3.92,1.78,4.4,4.42-2.54,2.51-5.4,3.83-7.75,3.46Z"/>
                  <path class="cls-4" d="M877.51,175.47c-2.43.22-4.06-1.23-4.85-3.44,2.19-2.39,4.7-4.18,7.11-4.61,2.4-.43,4.2.68,5.06,2.97-2.2,2.94-4.9,4.86-7.32,5.08Z"/>
                  <path class="cls-4" d="M882.81,162.69c-2.43.82-4.27-.13-5.36-2.01,1.9-2.75,4.19-5.04,6.57-6.05,2.37-1.01,4.32-.45,5.5,1.45-1.82,3.31-4.28,5.79-6.71,6.61Z"/>
                  <path class="cls-4" d="M886.78,149.39c-2.35,1.41-4.33.98-5.66-.52,1.57-3.07,3.59-5.8,5.85-7.37,2.25-1.57,4.28-1.57,5.71-.11-1.41,3.61-3.57,6.6-5.91,8Z"/>
                  <path class="cls-4" d="M889.43,135.75c-2.18,1.97-4.24,2.09-5.75,1,1.21-3.32,2.91-6.45,4.98-8.56,2.07-2.1,4.09-2.66,5.7-1.68-.96,3.84-2.76,7.28-4.94,9.24Z"/>
                  <path class="cls-4" d="M890.73,121.95c-1.95,2.49-3.99,3.15-5.64,2.5.82-3.51,2.15-6.99,3.96-9.58,1.81-2.59,3.75-3.69,5.47-3.2-.49,3.98-1.85,7.8-3.8,10.29Z"/>
                  <path class="cls-4" d="M890.68,108.17c-1.64,2.97-3.6,4.16-5.32,3.95.4-3.64,1.32-7.39,2.8-10.42,1.48-3.02,3.26-4.65,5.02-4.66.01,4.04-.87,8.16-2.51,11.13Z"/>
                  <path class="cls-4" d="M889.27,94.59c-1.25,3.39-3.06,5.08-4.79,5.32-.03-3.7.42-7.65,1.51-11.05,1.09-3.39,2.63-5.5,4.35-6,.53,4.02.18,8.35-1.07,11.73Z"/>
                  <path class="cls-4" d="M886.48,81.37c-.8,3.73-2.38,5.9-4.06,6.58-.49-3.69-.53-7.76.09-11.46.63-3.69,1.85-6.22,3.47-7.19,1.07,3.9,1.3,8.36.51,12.08Z"/>
                  <path class="cls-4" d="M882.31,68.7c-.28,3.99-1.55,6.59-3.13,7.69-.96-3.61-1.54-7.72-1.44-11.64.1-3.91.93-6.79,2.36-8.21,1.62,3.7,2.48,8.17,2.21,12.15Z"/>
                  <path class="cls-4" d="M876.75,56.74c.31,4.15-.58,7.12-1.98,8.63-1.44-3.45-2.59-7.51-3.08-11.55-.48-4.03-.13-7.19,1.04-9.01,2.18,3.41,3.71,7.78,4.02,11.93Z"/>
                </g>
              </g>
              <path class="cls-4" d="M860.54,47.85c2.85,3.47,5.77,6.26,8.66,8.27-.81-4.03-2.72-8.32-5.72-11.97-3-3.66-6.61-6.1-10.04-7.18,1.85,3.7,4.25,7.4,7.1,10.88Z"/>
            </g>
            <path class="cls-4" d="M753.11,0c-64.13,0-116.12,51.99-116.12,116.13s51.99,116.12,116.12,116.12,116.12-51.99,116.12-116.12S817.24,0,753.11,0ZM753.11,222.01c-59.12,0-107.06-47.93-107.06-107.06S693.98,7.89,753.11,7.89s107.06,47.93,107.06,107.06-47.92,107.06-107.06,107.06Z"/>
            <line class="cls-2" x1="877.93" y1="60.41" x2="877.68" y2="58.63"/>
            <g>
              <path d="M677.03,219.29c.33-.77.3-1.5-.1-2.2-.22-.39-.54-.73-.94-1.03-.77-.57-1.62-.75-2.55-.54-.93.21-1.83.91-2.69,2.08-.87,1.18-1.22,2.21-1.05,3.1.18.89.61,1.59,1.29,2.09.67.5,1.37.71,2.08.65.71-.07,1.35-.38,1.92-.93l-2.22-1.64,1.19-1.6,4,2.96-3.81,5.15-1.33-.98.69-1.35c-.72.17-1.31.23-1.75.19-.77-.07-1.54-.39-2.31-.96-1.27-.94-1.99-2.15-2.15-3.63-.19-1.51.28-3.03,1.42-4.57,1.15-1.55,2.5-2.48,4.05-2.78,1.55-.3,3.03.06,4.43,1.11,1.22.9,1.97,1.94,2.25,3.1.28,1.17.13,2.25-.44,3.26l-1.97-1.46Z"/>
              <path d="M689.48,223.15c.28.39.46.82.53,1.29.06.39.06.78,0,1.17-.06.39-.21.79-.46,1.19-.29.49-.7.89-1.23,1.21-.53.32-1.13.41-1.81.27.36.47.53.94.52,1.41-.01.47-.23,1.06-.66,1.78l-.41.69c-.28.47-.45.8-.51.99-.1.3-.09.57.05.82l-.15.26-2.36-1.41c.07-.27.13-.48.19-.63.12-.32.26-.63.44-.94l.56-.96c.38-.66.53-1.16.44-1.51-.09-.35-.43-.7-1.02-1.06l-2.09-1.25-2.41,4.02-2.09-1.25,6.13-10.24,4.9,2.93c.69.43,1.18.84,1.46,1.23ZM684.15,222.02l-1.65,2.75,2.3,1.38c.46.27.83.42,1.13.45.52.05.95-.21,1.3-.79.37-.62.42-1.15.16-1.6-.15-.25-.44-.51-.88-.77l-2.36-1.41Z"/>
              <path d="M696.89,238.68c-1.21.46-2.59.32-4.13-.41-1.54-.73-2.52-1.7-2.94-2.93-.61-1.55-.46-3.29.46-5.23.93-1.98,2.18-3.21,3.74-3.68,1.21-.46,2.59-.32,4.13.41,1.54.73,2.53,1.7,2.95,2.93.62,1.5.47,3.25-.47,5.22-.91,1.94-2.16,3.17-3.73,3.68ZM696.25,236.38c.84-.41,1.54-1.23,2.11-2.44.57-1.21.75-2.27.54-3.18s-.77-1.57-1.66-2c-.89-.42-1.76-.43-2.61-.02-.84.41-1.55,1.22-2.12,2.44-.57,1.22-.75,2.28-.53,3.19.22.91.78,1.58,1.67,2,.89.42,1.76.43,2.59.01Z"/>
              <path d="M706.25,230.81l-.7,6.98-.29,1.91.92-1.65,3.48-6.08,2.49.84-.85,6.93-.27,1.92.94-1.62,3.72-6.03,2.41.82-7.01,10.23-2.26-.77.87-7.08.34-2.32-1.14,2.05-3.6,6.15-2.2-.74.62-12.39,2.51.85Z"/>
              <path d="M727.88,236.92l-.47,2.06-3.48-.79-2.18,9.58-2.45-.56,2.18-9.58-3.5-.8.47-2.06,9.43,2.15Z"/>
              <path d="M727.51,248.97l1.62-11.83,2.46.34-.62,4.51,4.6.63.62-4.51,2.46.34-1.62,11.83-2.46-.34.72-5.28-4.6-.63-.72,5.28-2.46-.34Z"/>
              <path d="M746.94,238.97l1.64,6.82.36,1.9.33-1.87,1.29-6.89,2.63-.02,1.48,6.82.38,1.9.35-1.83,1.53-6.92,2.54-.02-3.25,11.97-2.39.02-1.5-6.97-.44-2.3-.4,2.31-1.38,6.99-2.32.02-3.49-11.91,2.65-.02Z"/>
              <path d="M764.12,250.22l-2.47.22-1.06-11.89,2.47-.22,1.06,11.89Z"/>
              <path d="M773.87,236.87l.31,2.09-3.53.52,1.44,9.72-2.48.37-1.44-9.72-3.55.53-.31-2.09,9.57-1.42Z"/>
              <path d="M777.86,248.24l-2.77-11.61,2.41-.58,1.06,4.43,4.52-1.08-1.06-4.43,2.41-.58,2.77,11.61-2.41.58-1.24-5.18-4.51,1.08,1.24,5.18-2.41.57Z"/>
              <path d="M795.14,243.56l-4.27-11.15,2.31-.88,1.63,4.25,4.33-1.66-1.63-4.25,2.31-.89,4.27,11.15-2.31.89-1.9-4.98-4.34,1.66,1.9,4.98-2.31.89Z"/>
              <path d="M814.95,233.71c-.39,1.23-1.35,2.23-2.87,3-1.53.76-2.9.93-4.12.51-1.59-.48-2.87-1.67-3.83-3.59-.98-1.95-1.17-3.69-.58-5.21.39-1.23,1.35-2.23,2.87-3,1.53-.76,2.9-.93,4.12-.51,1.57.44,2.84,1.64,3.82,3.59.96,1.92,1.16,3.66.59,5.21ZM812.75,232.79c.19-.91-.01-1.97-.61-3.17-.6-1.2-1.32-1.99-2.17-2.39-.85-.39-1.71-.37-2.6.07s-1.43,1.12-1.62,2.04c-.2.92,0,1.97.6,3.18.6,1.2,1.33,2,2.18,2.39.85.39,1.72.36,2.6-.08s1.42-1.12,1.61-2.03Z"/>
              <path d="M823.53,223.76c-.28.86-.97,1.64-2.07,2.33l-2.11,1.32,2.28,3.64-2.1,1.32-6.34-10.12,4.34-2.72c1-.63,1.96-.87,2.89-.72.92.15,1.73.77,2.41,1.86.75,1.19.98,2.22.7,3.09ZM819.63,221.13c-.41-.06-.85.07-1.34.37l-1.91,1.19,1.87,2.98,1.9-1.2c.48-.3.78-.66.9-1.07.12-.41,0-.88-.32-1.4-.33-.53-.7-.82-1.11-.87Z"/>
              <path d="M830.63,212.76l-5.04,3.81,1.53,2.02,4.62-3.5,1.25,1.65-4.62,3.5,1.85,2.45,5.27-3.99,1.3,1.71-7.21,5.46-7.21-9.52,6.98-5.29,1.28,1.69Z"/>
            </g>
          </g>
        </g>
        <circle class="cls-3" cx="753.11" cy="114.74" r="91.45"/>
        <g>
          <path class="cls-1" d="M731.53,25.22c-8.6,1.38-16.72,4.07-24.18,7.85,0,0,0,0,0,0-.62.49-1.19,1.04-1.69,1.68-.17.21-.32.43-.51.7.24.01.36.02.46.03-.67.57-1.33,1.14-1.99,1.71.04.05.09.1.13.16.25-.13.5-.25.74-.38-.18.34-.4.6-.67.78-1.46.98-2.37,2.35-2.93,3.98-.16.45-.17.96-.26,1.5.39,0,.59,0,.71,0,.1.51.2.96.34,1.67.56-.45,1.04-.73,1.4-1.14.88-1.01,1.69-2.09,2.56-3.1.25-.29.64-.47.99-.67.37-.21.81-.31,1.12-.58,1.17-1.02,2.26-2.13,3.46-3.11.65-.54,1.46-.88,2.3-1.37-.13.32-.21.51-.38.9,2.55-1.08,4.67-2.49,6.8-3.99.43.62,1.05.62,1.68.33.82-.38,1.63-.8,2.44-1.22.76-.39,1.43-.93,2.37-.92.35,0,.7-.31,1.05-.49-.02-.06-.04-.12-.07-.18-.47.36-.85.33-1.35,0-.5-.32-.37-.53-.03-.69.47-.22.99-.32,1.58-.49-.15.34-.24.54-.42.93.76-.36,1.34-.62,1.9-.92.13-.07.23-.25.28-.39.16-.53.3-1.06.39-1.43.4-.03.67.04.81-.07.36-.28.67-.64,1.09-1.06-.05,0-.1,0-.15,0Z"/>
          <path class="cls-1" d="M845.85,107.41s-.04,0-.06,0c-1.01-.04-1.32-.8-1.79-1.48-.61-.89-1.28-1.79-2.12-2.45-.4-.31-1.31-.25-1.85-.03-1.68.68-3.39.26-5.08.3-.1,0-.24-.03-.3-.11-.7-.87-1.65-.68-2.56-.58-.68.08-1-.3-1.23-.84-.61-1.39-.86-1.47-2.3-1.09-1.66.43-3.24.37-4.54-.99-.22-.23-.55-.36-.79-.57-.48-.42-.96-.85-1.4-1.31-.72-.74-1.34-1.59-2.14-2.23-.36-.29-1.09-.32-1.58-.18-.21.06-.4.89-.29,1.27.38,1.24.88,2.46,1.42,3.64.11.24.57.38.9.45,1.02.24,1.69.73,1.59,1.89-.04.45.16.72.65.74,1.11.06,2.22.11,3.32.21.22.02.42.23.64.35-.21.17-.4.45-.63.49-.31.04-.66-.22-.95-.16-.39.08-.75.34-1.12.53.26.44.45.95.8,1.32.36.39.68.07.9-.29.39-.65.87-.84,1.64-.53.44.18,1.01.05,1.58.06.03-.76,0-1.45.13-2.1.08-.36.45-.66.69-.98.2.3.47.58.6.92.34.89.61,1.8.91,2.7.09,0,.18-.01.28-.02.04-.36.09-.71.13-1.07.89-.19.92-.15,1.22,1.72.92.07,1.48.53,1.58,1.52.02.22.35.53.58.57.62.12.72.59.73,1.02,0,.17-.49.32-.66.55-.21.28-.42.62-.43.94-.03.7.07,1.4.12,2.16-.91-.32-1.14-.19-1.33.62-.09.4-.12.81-.22,1.2-.04.16-.19.42-.28.42-.95-.07-.89.7-1.05,1.26-.11.4-.22.72-.73.67-.9-.08-1.15.5-1.13,1.22.02.71-.24.96-.95.93-.81-.03-1.59-.01-2.33.53-.46.34-.79.58-.75,1.19,0,.14-.29.43-.43.42-.57-.03-.85.3-1.22.66-.4.38-.93.69-1.46.86-1.44.45-2.82.94-3.27,2.38-.95.02-1.77-.08-2.54.09-.43.09-.82.58-1.13.97-.75.95-1.38,1.24-2.28.94-1.06-.35-1.57-.96-1.46-2.15.27-2.88-1.19-5.17-2.52-7.45-.81-1.37-1.88-2.68-3.11-3.68-1.05-.86-1.66-1.61-1.42-2.99.06-.35-.15-.8-.34-1.14-.38-.69-.85-1.33-1.26-2.01-.32-.53-.68-.93-1.36-1.04-.8-.12-.83-.8-.91-1.44-.06-.5-.14-1.02-.35-1.46-.85-1.81-1.93-3.47-3.52-4.61-.36.24-.78.75-1.09.69-.49-.09-1.03-.48-1.34-.89-.75-.97-1.67-1.83-1.71-3.26-.02-.6-.4-1.48-1.43-1.39-.18.02-.37-.14-.55-.21.02-.09.03-.17.05-.26.69.12,1.41.17,2.07.39.87.29,2.64-.41,2.96-1.28.06-.15.12-.31.15-.47.12-.81.39-1.49.9-2.18.68-.92,1.12-2.01.42-3.24-.22-.39-.06-1.01-.07-1.52-.01-.58.18-1.22-.26-1.5-.57.04-.99.19-1.3.07-1.56-.63-1.6-.62-1.65,1.05-1.26.22-2.47.32-3.46-.76-.17-.19-.44-.34-.69-.41-.82-.22-1.2.05-1.1.88.11.83-.23.85-.92.84-1.15-.02-1.7-.95-2.67-1.61-.13.83-.23,1.54-.34,2.25-.13,0-.27.02-.4.02-.08-.49-.3-1.01-.2-1.45.12-.53.02-.81-.38-1.1-.63-.47-1.15-1.03-1.13-1.88.01-.74-.26-1.29-.83-1.77-.4-.34-.85-.79-.1-1.26-.64-1.5-2.02-1.61-3.31-1.75-.86-.09-.62.68-.63,1.41-.57-.1-1.09-.21-1.63-.28-.26-.03-.53.03-.79.05.12.27.18.73.36.78.88.27,1.28.89,1.61,1.68.13.31.5.52.85.87.17-.47.28-.79.43-1.23.39.3.73.57,1.2.93-.44.13-.69.2-.97.28-.01.15-.03.3-.04.46-.05.77-.33.97-1.05.74-1-.32-.95-.32-.97.68,0,.39-.2.95-.5,1.13-.34.2-.89.12-1.33.04-.15-.03-.2-.44-.34-.65-.27-.41-.56-.8-.87-1.18-.06-.07-.27-.01-.41-.03-.33-.03-.72.03-.99-.13-.56-.33-.74-.81-.64-1.26.36.07.72.15,1.19.24-.11-.83-.24-1.44-1.09-1.54-.15-.02-.38-.11-.42-.22-.36-1.03-1.49-1.85-.99-3.12.27-.68.06-1.09-.49-1.44-.25-.16-.51-.32-.76-.47-1.85-1.09-3.77-2.08-5.34-3.62-.52-.51-1.29-.76-1.93-1.16-.23-.14-.39-.42-.62-.56-.29-.17-.62-.27-.94-.4-.07.26-.13.53-.2.79-.06.24-.1.49-.18.73-.1.31-.23.62-.41,1.07.88-.07,1.47.06,1.65.93.05.23.5.37.76.57.49.39.92.76,1.25,1.39.31.59,1.33.81,2.04,1.19.27.15.55.27.81.43.58.35,1.12.77,1.73,1.07,1.15.58,1.16.55,1.21,1.96-.86-.32-1.75-.92-2.67.29.56.06.98.11,1.63.17-.15.41-.19.86-.43,1.13-.8.89-1.71,1.68-2.49,2.58-.26.3-.24.83-.35,1.26-1.81.62-3.15-.27-4.53-1.64,1.85-.41,3.61-.81,5.66-1.26-.45-.71-.68-1.37-1.14-1.74-1.82-1.47-3.72-2.84-5.57-4.28-1.03-.8-2.09-1.55-2.74-2.75-.21-.4-.55-.75-.89-1.05-.45-.39-.89-.47-1.41.06-.33.33-.88.56-1.36.61-.62.07-.99.35-1.11.89-.11.53-.41.68-.86.61-.53-.07-1.06-.19-1.58-.3-.16-.03-.3-.15-.46-.17-1.61-.19-2.45-.41-2.24,1.94.11,1.25-.03,1.4-1.22,1.81-.64.22-1.27.49-1.92.7-1.36.45-2.01,1.53-2.46,2.76-.07.2.08.55.23.76.61.83.29,1.52-.71,1.77-1.02.26-2.04.59-2.96,1.09-1.62.87-3.17,1.89-4.62,2.77-.51-.43-.95-.86-1.46-1.2-.23-.15-.6-.1-.91-.11-.13,0-.27.1-.4.07-.8-.16-1.59-.35-2.48-.55.1-.72.46-1.6.26-2.32-.26-.93.1-1.57.38-2.32.24-.63.5-1.29.52-1.95.05-1.39-.06-2.79-.05-4.19,0-.18.23-.42.41-.51.49-.26,1-.46,1.51-.68.11-.05.24-.1.36-.09,1.03.08,2.06.1,3.07.27,1.1.19,2.18.54,3.28.77,1.2.26,1.87-.16,2.21-1.3.27-.91.53-1.83.82-2.74.16-.5.11-.89-.39-1.17-.49-.27-.66-.67-.64-1.27.05-1.38-.61-2-2.05-2.31-.46-.1-.85-.51-1.27-.78.55-.83,1.45-1.09,2.18-.72.07.04.15.08.22.08.6.03,1.2.05,2,.08l-.15-2.28c1.01.24,1.86.45,2.83.68-.05-1.43.94-1.2,1.69-1.36.06-.3.1-.6.19-.87.15-.45.23-.96.95-.89.23.03.51-.27.75-.44.6-.39,1.2-.8,2-1.33-.07-.15-.19-.49-.36-.79-.2-.37-.2-.75.28-.63,1.23.3,1.85-.63,2.7-1.13.45-.26,1-.4,1.52-.48.67-.11,1.35-.11,2.01-.15.05-.15.11-.23.1-.3-.19-1.17-.32-2.37-.61-3.52-.16-.65-.33-1.06.32-1.61.74-.63,1.24-1.53,2-2.51.17.6.21.94.36,1.24.19.39-.1,1.06.64,1.17.02,0-.02.42-.04.65-.02.23-.05.46-.08.69.6-.28,1.06-.55,1.56-.72.17-.05.61.19.61.26-.05.67-.13,1.35-.33,1.99-.04.14-.59.19-.9.16-.6-.05-1.2-.18-1.84-.28-.04.43-.06.67-.08.9.3.15.62.25.86.44.8.65,1.12.57,1.39-.39.82-.13,1.64-.27,2.45-.4.36,1.18.6,1.32,1.76.84.98-.41,1.96-.85,2.86-1.4.51-.31.84-.21,1.24.06.42.29.87.55,1.3.83.06-.07.12-.13.17-.2-.19-.33-.39-.66-.73-1.24.98-.02,1.78-.03,2.58-.04-.47-1.13.04-2.23.13-3.34.03-.42.3-.84.53-1.22.24-.39.5-.44.76.05.16.3.44.55.7.78.35.31.72.38,1.04-.06.14-.2.26-.43.44-.59.38-.35.36-.63-.05-.92-.2-.14-.39-.3-.56-.48-.43-.46-.79-.58-1.25,0-.44.57-1.14.41-1.55.08-.68-.55.14-.68.45-.96-.08-.14-.16-.3-.24-.45.03-.08.06-.15.1-.23.44.13.89.27,1.33.41.24-.69,1.47-1.25,2.5-1.13.38.04.75.12,1.13.19.75.15,1.38.17,1.68-.77.08-.26.57-.44.9-.57.3-.12.65-.13.98-.2,0-.07,0-.14,0-.21-.16-.04-.31-.08-.47-.13-.45-.14-.89-.28-1.34-.42-.05-.02-.1-.09-.14-.08-.93.21-1.86.38-2.78.64-1.07.3-2.09.93-3.25.36-.17-.08-.35-.15-.52-.25-.56-.32-1.42-.52-1.61-1-.38-.93-.41-2.01-.53-3.04-.02-.18.22-.41.38-.58.55-.57,1.16-1.09,1.67-1.68.25-.29.32-.71.49-1.07.1-.2.23-.38.44-.71-.14-.44-.23-1.16-1.24-.88-.14.04-.36-.2-.53-.32-.64-.42-1.14-.23-1.27.51-.12.74-.2,1.5-.27,2.13-.49.44-.94.84-1.39,1.24-.31.27-.61.55-.95.77-1.38.89-1.97,2.42-1.38,3.93.18.46.65.81,1.1,1.35,0,0,.22,0,.43,0,.58-.03.7.43.53.75-.28.52-.66,1.07-1.14,1.37-.65.4-1.05.8-1,1.6.02.31-.09.66-.23.94-.23.48-.08.66.4.67.3,0,.74-.19.7.35,0,.12-.46.21-.7.31-.05.02-.11.02-.16.03-.25.86-.74,1.2-1.68,1.11-.86-.08-.84.59-1,1.21-.28.02-.57.04-.86.06-1.15.06-1.16.02-.95-1.1.04-.21-.2-.48-.33-.72-.21-.39-.43-.77-.64-1.16-.13-.23-.18-.56-.37-.69-.49-.32-.52-.63-.52-1.24,0-.74-.6-1.47-.92-2.17-1.12.9-2.08,1.83-3.2,2.49-.42.25-1.19-.09-1.8-.16-.02,0-.03-.06-.05-.06-1.35-.1-.95-.77-.34-1.5-.44-.11-.76-.19-1.15-.28.29-.56.55-1.04.86-1.63-.4-.04-.72-.08-1.03-.11.26-.95.29-2.04.83-2.73.66-.85,1.7-1.47,2.68-1.99.52-.27.87-.45.82-1.05,1.6.06,2.48-.95,3.51-2.08-.43-.05-.66-.08-1.13-.13.37-.29.58-.51.83-.63.76-.35,1.21-.88,1.49-1.7.2-.58.74-1.04,1.12-1.56.23-.32.41-.67.67-.96.34-.38.72-.72,1.15-1.13-1.14-.32-1.94.74-3.04.76.88-.71,1.76-1.42,2.62-2.11.29.71.45.78,1.19.5-.17-.21-.33-.4-.5-.59,0-.08.02-.16.03-.25.3,0,.62.08.9,0,.22-.07.48-.31.53-.52.06-.25-.08-.56-.19-1.08.72.36,1.25.63,1.8.91,0-.14.01-.31.03-.57.55.02,1.1.04,1.64.07.01-.05.02-.1.03-.15-.13-.07-.26-.13-.38-.21-.2-.11-.4-.22-.57-.37-.03-.02.09-.33.19-.36.3-.08.62-.13.92-.1.14.01.26.24.36.34.42-.35.8-.67,1.16-.96.45.26.8.48,1.21.72l-.03-.49.97-.06c.08.25.17.5.32.97.13-.38.18-.53.23-.69,1.5.11,1.92.4,1.56,1.34.69,0,1.32-.09,1.91.03.42.09.79.45,1.16.72.11.08.15.26.27.51.39-.75.86-.53,1.34-.25.12.07.26.15.38.14,1.91-.21,3.47,1.01,5.26,1.29.23.04.46.18.66.31.57.36,1.27.68,1.1,1.53-.14.72-1.25,1.4-2.09,1.25-1.65-.28-3.29-.65-4.93-.99-.34-.07-.66-.19-.99-.29-.04.08-.09.16-.13.24.48.3.94.64,1.45.88.87.4,1.65.85,1.92,1.86.04.14.16.3.28.37.78.46,1.64.82,2.35,1.36.71.54,1.34.43,2.25.13-.34-.22-.54-.39-.76-.48-.45-.19-.95-.29-1.38-.52-.19-.1-.24-.44-.36-.68.25-.02.56-.14.75-.04,1,.53,2.05.62,3.12.59.05-.08.11-.17.16-.25-.52-.29-1.03-.59-1.71-.97,1.04-.78,1.34-1.95,2.6-1.75.38.06.74.26,1.1.39.06-.07.13-.14.19-.21-.36-.42-.72-.83-1.09-1.25-.34-.39-.67-.78-1.02-1.16-.33-.35-.67-.7-1-1.04.83.33,1.65.67,2.47,1.02-.09.02-.19.05-.31.08.63.44,1.12.91,1.69,1.14.21.08.52-.07.88-.22,29.68,13.65,51.34,42.36,54.53,76.99Z"/>
          <path class="cls-1" d="M802.5,85.41c-.05-.07-.09-.14-.14-.22-.16-.28-.09-.41.08-.5.02.24.04.48.06.72Z"/>
          <path class="cls-1" d="M737.92,143.45c-1.81.12-3.51.25-5.22.35-2.21.12-2.85-.33-3.53-2.38-.4-1.2-.91-1.52-2.15-1.21-.48.12-1,.29-1.35.61-.65.58-1.36.6-2.14.54-.56-.04-1.15-.1-1.67.04-.47.13-.9.48-1.29.81-.31.26-.49.85-.81.92-1.16.25-2.36.36-3.54.5-.1.01-.26-.07-.31-.16-.5-.88-1.34-.67-2.11-.65-1.09.04-2.18.15-3.28.16-.54,0-.85.19-.93.7-.11.73-.54.86-1.2.76-2.07-.31-3.75-1.39-5.3-2.69-.24-.2-.24-.75-.28-1.14-.06-.66-.26-1.1-1.04-1.16-.52-.04-1.03-.26-1.53-.43-1.4-.47-2.27-1.38-2.31-2.9-.02-.66-.34-.96-.84-1.3-1.07-.73-2.13-1.49-3.1-2.35-1.26-1.12-2.16-2.47-2.23-4.27-.03-.71-.39-1.42-.62-2.12-.18-.53-.15-.98.32-1.35.64-.5.78-1.14.71-1.95-.13-1.5-.17-3.01-.16-4.52,0-.6.14-1.24.37-1.8.28-.67.06-.94-.56-1.06-.49-.1-1.01-.11-1.47-.29-.33-.13-.78-.43-.82-.71-.08-.47-.03-1.33.22-1.44,1.72-.76,1.59-2.26,1.65-3.7.02-.47,0-.94,0-1.54,1.64.28,1.93-.83,2.42-1.99.78-1.84,1.82-3.57,2.76-5.35.08-.14.22-.3.36-.34,1.76-.54,2.84-1.73,3.32-3.52l1.88-.13c.26-1.69.49-3.32.77-4.94.25-1.47.47-1.66,1.96-1.88.26-.04.53-.04.9-.06.06-1,.12-1.98.18-2.98.56-.04,1.05-.05,1.54-.11.7-.08,1.13-.42,1.14-1.2,0-.44.11-.88.23-1.3.18-.67.73-.96,1.24-.55.85.7,1.83.51,2.77.67,1.85.32,3.24-.68,4.62-1.6,1.03-.69,2.09-1.02,3.31-.95.85.05,1.54-.16,2.2-.82,1.12-1.12,2.59-1.14,4.13-.04.86.62,1.41.46,2.31.04,2.32-1.08,4.79-1.66,7.36-.81.31.1.56.39.83.58-.14.2-.16.27-.21.29-1.54.83-1.55.83-.9,2.46.53,1.31,1.08,2.62,1.66,3.91.37.83.99,1.22,1.97,1.17,1.44-.08,3.07-.02,3.93,1.17,1.07,1.5,2.45,1.54,3.93,1.51.89-.02,1.61.23,2.26.82.26.24.55.46.87.61,1.37.66,2.45.01,2.45-1.45,0-1.03-.04-2.06-.07-3.32,1.34.08,2.68,0,3.94.27,3,.65,5.96,1.47,8.93,2.22.52.13,1.04.21,1.55.36.92.27,1.75.23,2.6-.34.35-.23.99-.13,1.47-.05,2.05.33,2.71,1.87,3.58,3.56,2.82,5.45,5.91,10.76,8.96,16.09.6,1.05.98,2.12.84,3.28-.27,2.24.62,4.06,2.16,5.48,2.19,2.02,4.57,3.83,6.84,5.76.35.3.57.76.79,1.18.62,1.16,1.13,2.39,1.87,3.46.25.36,1.06.47,1.62.47,1.35,0,2.71-.07,4.05-.26.67-.1,1.31-.5,1.95-.8.66-.31,1.28-.73,1.97-1,.79-.3,1.17-.07,1.3.78.07.46.05.95-.02,1.41-.6,4.13-2.57,7.6-5.41,10.55-2.56,2.66-5.3,5.14-7.95,7.71-2.95,2.86-5.59,5.94-6.95,9.92-.35,1.01-.54,1.99-.36,3.11.17,1.05-.09,2.17-.09,3.26,0,.55.15,1.1.25,1.65.13.71.4,1.42.39,2.13,0,1.41-.15,2.82-.25,4.23-.11,1.48-.77,2.78-1.8,3.76-1.54,1.46-3.21,2.77-4.86,4.09-1.15.92-2.4,1.73-3.55,2.65-.25.2-.41.69-.39,1.03.11,1.38.32,2.76.47,4.14.07.65-.19,1.07-.79,1.42-1.28.74-2.51,1.56-3.73,2.39-.24.17-.51.55-.49.81.14,1.56-.51,2.82-1.41,3.99-1.32,1.74-3.02,3.06-4.82,4.27-.12.08-.3.13-.37.24-.71,1.27-2.11,1.19-3.19,1.73-.78.39-1.46.91-2.37,1.04-1.91.27-3.82.64-5.73.87-1.09.13-1.42-.21-1.62-1.24-.31-.15-.61-.29-.95-.45.12-.21.17-.37.27-.46.66-.53.47-1.02.29-1.79-.29-1.23-1.17-2-1.7-3.02-.93-1.81-1.81-3.64-2.71-5.47-.09-.18-.17-.4-.15-.6.16-1.85-.47-3.53-1.09-5.21-.15-.4-.46-.81-.81-1.05-.78-.56-1.15-1.29-1.35-2.2-.09-.41-.45-.75-.68-1.13-.28-.46-.72-.88-.82-1.38-.41-2.06.29-3.94,1-5.84.6-1.62,1.02-3.31,1.49-4.98.06-.21-.02-.62-.16-.7-1.05-.58-.89-1.55-.89-2.49,0-.25-.03-.53-.14-.74-1.03-1.99-2.1-3.96-3.12-5.95-1.2-2.35-2.63-4.5-5.18-5.73.12-.24.19-.59.31-.6.84-.12.79-.78.84-1.33.23-2.56.43-5.12.64-7.67.02-.23-.03-.46-.06-1Z"/>
          <path class="cls-1" d="M695.73,186.04c.36.63.77,1.23,1.17,1.83-15.75-10.58-27.35-27-31.56-46.33,0,0,0,0,0,0-.39-1.6,0-3.06.7-4.51l.21,4.27c.09,0,.17,0,.26,0l-.16-3.23c.09-.03.17-.06.26-.08.21.42.41.83.63,1.25.11.2.2.44.36.58.35.3.74.54,1.17.86.03-.13.09-.4.15-.67.23-.08.46-.17.84-.31.05.26.15.57.15.87,0,.79.19,1.01.64.85.54.87,1.02,1.73,1.58,2.54.56.81,1.18,1.57,1.79,2.33.11.14.42.32.5.27.78-.47,1.28.16,1.69.54.68.63,1.24,1.41,1.76,2.18.29.44.42.99.61,1.5.16.41.1.89.66,1.15.42.2.58,2.12.33,2.58-.26.47-.17.77.38,1.05l-.06-1.15c.95-.15,1.6.48,1.44,1.38-.12.67.05.94.68.98-.08-.39-.16-.76-.24-1.13.71-.19,2.07.5,3.53,1.77-.25.82-.16.96.78,1.15l-.04-.82c.36.09.73.07.93.25.62.53,1.31.55,2.02.36.65-.17,1.16-.01,1.58.48.42.5.79,1.05,1.27,1.49.27.25.71.32,1.07.48.34.15.8.22,1,.48,1.12,1.45,2.06,2.99,1.61,4.96-.13.59-.14,1.22-.32,1.8-.21.66-.54,1.28-.83,1.91-.22.47-.18.91.06,1.36.31.6.61,1.2.87,1.82.26.62.48,1.25.7,1.89.15.43.29.86.42,1.3.17.61.26,1.26.5,1.84.53,1.26.37,2.61.66,3.97-.53,0-1.05,0-1.6,0-.06.23-.11.46-.17.71-.2.03-.41.07-.68.11-.16,1.12.16,2.15.69,3.1Z"/>
          <path class="cls-1" d="M689.49,48.78c-.35.57-.71,1.12-1.05,1.7-.47.81-.89,1.64-1.37,2.44-.29.48-.63.94-1.02,1.34-.7.71-.85,2.29-.25,3.14-.72.97-2.32.77-2.81,2.19.69-.41,1.3-.78,1.96-1.19.08.49.12.78.2,1.23-.3.53-.64,1.3-1.14,1.94-.3.39-.85.58-1.29.85-.41.25-.86.45-1.25.73-.29.2-.52.5-.77.75-.47.47-.88.73-1.68.46-.81-.27-1.72-.17-2.39.76-.64.89-1.59,1.55-2.35,2.37-.27.29-.39.73-.55,1.13,1-.98,1.76-2.26,3.16-2.68.09.09.17.19.26.28-.38.57-.72,1.16-1.14,1.69-.77.98-1.17,2.06-1.14,3.31,0,.16.07.32.12.52,1.15.04,1.05-1.52,2.23-1.61-.83,1.15-1.51,2.24-2.61,3.01-.81.57-1.56,1.23-2.38,1.89-.04-.62.24-1.14.65-1.54.39-.37.9-.61,1.42-.94-.6-.39-.97-.41-1.34.16-.35.54-.8.95-1.4,1.32-.67.4-1.1,1.25-1.53,1.96-.34.57-.59,1.21-.74,1.86-.16.71-.8.96-1.18,1.45-.16.2-.44.33-.55.55-.54,1.12-.88,2.38-1.59,3.36-.9,1.23-.92,2.64-1.32,3.97-.2.66-.4,1.34-.73,1.94-1.44,2.63-2.12,5.48-2.55,8.4-.31,2.03-.5,4.08-.75,6.12-.03.25-.09.5-.21.72.53-6.62,1.77-12.98,3.66-19.1,0,0,0-.01,0-.02,4.45-13.32,12.21-25.21,22.38-34.6-.13.31-.23.65-.31,1.01,1.1-.98,2.2-1.96,3.31-2.93.03.02.06.04.08.06Z"/>
          <path class="cls-1" d="M802.28,191.43c.45-.49.9-.98,1.33-1.48.6-.71,1.17-1.46,1.79-2.15.37-.42.79-.82,1.25-1.14.81-.58,1.25-2.1.81-3.04.88-.82,2.42-.34,3.16-1.65-.75.29-1.41.54-2.14.82.01-.5.02-.79.03-1.25.39-.47.86-1.16,1.47-1.7.36-.33.94-.42,1.42-.61.45-.17.92-.29,1.36-.49.32-.15.6-.39.89-.6.55-.38,1-.56,1.74-.15.75.41,1.66.48,2.49-.32.79-.76,1.84-1.24,2.73-1.91.32-.24.51-.65.74-1.01-1.16.78-2.13,1.91-3.59,2.07-.07-.11-.14-.22-.21-.32.47-.49.92-1.01,1.43-1.46.93-.82,1.52-1.82,1.72-3.05.03-.16-.01-.33-.02-.53-1.12-.25-1.3,1.31-2.48,1.18,1.02-.98,1.89-1.93,3.1-2.49.9-.42,1.76-.93,2.68-1.43-.07.62-.44,1.08-.92,1.4-.45.3-1,.44-1.56.67.51.5.88.58,1.35.08.44-.46.95-.8,1.61-1.04.73-.27,1.31-1.03,1.86-1.66.44-.5.8-1.09,1.06-1.7.29-.67.96-.8,1.43-1.21.19-.17.49-.24.64-.44.73-1.01,1.29-2.18,2.17-3.02,1.1-1.05,1.38-2.43,2.01-3.67.32-.61.63-1.25,1.06-1.78,1.88-2.33,3.06-5.01,4.02-7.81.66-1.95,1.23-3.93,1.84-5.89.07-.24.18-.47.33-.67-1.71,6.42-4.06,12.45-7.02,18.14,0,0,0,.01,0,.02-6.76,12.31-16.53,22.61-28.21,30.03.18-.28.34-.6.49-.94-1.26.77-2.52,1.53-3.78,2.29-.02-.02-.05-.05-.07-.07Z"/>
          <path class="cls-1" d="M799.83,160.48c.07-.64-.04-1.46.28-2.05.42-.78.44-1.86,1.48-2.29.17-.07.25-.59.21-.88-.1-.73,0-1.37.47-1.95.11-.14.22-.3.26-.47.19-.71.41-.92,1.15-.97.22-.02.44.03.66,0,.25-.04.57-.05.71-.21.37-.4.66-.88.98-1.32.18-.25.34-.53.58-.71.53-.41,1.08-.79,1.04-1.56.9.21,1.03.41.87,1.22-.08.41-.11.85-.24,1.24-.13.38-.36.73-.55,1.09-.02.03-.07.05-.07.08-.11.99-.98,1.71-.99,2.72,0,.38-.12.64-.49.76-.82.25-1.2.82-1.31,1.65-.04.29-.21.62-.43.8-.56.46-.8,1.07-1,1.73-.36,1.14-1.39,1.8-2.39,1.55-.4-.1-.79-.28-1.22-.43Z"/>
          <path class="cls-1" d="M738.06,59.04c.23.51.55.95.58,1.4.02.24-.42.63-.73.75-.49.19-.52.43-.32.81.21.4.13.6-.33.72-.54.14-1.05.37-1.58.51-.16.05-.41.01-.54-.09-.38-.28-.63-.29-1.04.05-.27.22-.82.11-1.24.16-.18.02-.48.06-.5.14-.15.72-.62.55-1.1.48-.15-.02-.33.13-.5.18-.31.1-.62.2-.92.3.28-.45.43-.88.73-1.13.42-.34.94-.55,1.43-.79.14-.07.35-.02.49-.09.16-.09.28-.25.42-.39-.16-.07-.31-.19-.48-.19-.6-.03-1.21-.02-1.93-.03-.34-1.01,1.22-.8,1.26-1.6-.37-.04-.7-.08-1.23-.13.78-.46,1.22-1.1,2.1-.62.52.28.93-.37.72-1.16-.13-.51-.34-1-.51-1.48-.36.02-.75.07-1.14.06-.1,0-.25-.14-.29-.25-.03-.07.06-.27.13-.29.69-.22.37-.7.33-1.23-.35.41-.63.64-.95.07-.06-.11-.48-.02-.85-.02.45-.58.85-1.09,1.25-1.61-.08-.03-.17-.07-.25-.1-.12-.26-.33-.52-.32-.77.01-.31.21-.6.64-.36.49.27.71.1.83-.44.28-1.18,1.04-1.55,2.34-1.16-.23.21-.46.37-.62.58-.16.22-.25.5-.42.85.68,0,1.29-.01,1.92-.02.06,1.35-1.07,1.88-1.71,2.67.05.1.07.18.1.18,1.16,0,1.45.91,1.81,1.74.05.13.15.25.25.34.57.52.58.52.5,1.32,1.07.04.41.98.81,1.54.24-.26.46-.5.87-.94Z"/>
          <path class="cls-1" d="M728.59,39.05c-.19.35-.38.69-.48.88.14.38.34.64.29.85-.09.36-.17.79-.75.78-1.38-.03-2.5.63-3.51,1.5-.65.56-1.24.53-1.79-.06-.1-.11-.34-.14-.51-.14-.43,0-.85.05-1.42.09.16-.44.28-.78.43-1.19-.28-.01-.54-.03-.86-.04.28-.8.94-.55,1.5-.63.2-.03.53-.25.52-.37,0-.35-.23-.57-.63-.42-.13.05-.27.08-.49.14.24-.71.69-1.02,1.31-1.11.47-.06.96-.07,1.49-.11-.08.19-.2.5-.36.91.34-.06.62-.07.88-.15.61-.2,1.19-.45,1.88-.23.24.08.6-.22.9-.33.5-.18.99-.36,1.49-.54.04.06.07.12.11.18Z"/>
          <path class="cls-1" d="M726.44,59.5c-.34-.06-.54-.09-.77-.13.04-.22.06-.41.12-.59.17-.56.07-1.33,1.08-1.17.41.06.76-.18.82-.71.07-.7.41-1.04,1.2-.31.1-.08.2-.17.31-.26.41-.32,1.07-.31,1.3.01.33.47.21,1.35-.22,1.6-.09.06-.24.11-.26.2-.25.86-.53,1.72-.7,2.6-.07.36-.17.5-.53.49-.33,0-.68-.03-1,.05-.31.08-.58.29-.87.44-.26.12-.52.25-.79.33-.22.07-.45.1-.68.1-.17,0-.38-.06-.5-.17-.08-.08-.11-.38-.04-.44.49-.38.34-1.3,1.2-1.4.12-.01.2-.38.34-.66Z"/>
          <path class="cls-1" d="M684.66,63.24c-.57.71-1.14,1.41-1.54,1.91.19.7.21,1.26.48,1.65.49.7-.18.95-.38,1.38-.23.47-.42.96-.66,1.43-.18.34-.41.66-.62.99-.06-.02-.13-.04-.19-.06-.03-.48-.06-.96-.1-1.51-.63-.04-1.19-.07-1.75-.1.12-.78,4-5.69,4.6-5.83.06.05.11.1.17.15Z"/>
          <path class="cls-1" d="M678.91,66.72c.15-.72.04-1.44.65-2.05.13.83.39,1.58-.65,2.05Z"/>
          <path class="cls-1" d="M731.75,51c-.52.45-1.04.9-1.61,1.4-.1-.65.51-1.25,1.44-1.56.06.05.11.11.17.16Z"/>
        </g>
        <path d="M748.4,176.45c-.06.34-.1.68-.18,1.01-.17.74-.28,1.5-.55,2.21-.53,1.37-1.15,2.7-1.72,4.05-.08.2-.06.45-.07.68-.02.56-.02,1.11-.04,1.67-.02.41-.06.81-.18,1.22.07.12.19.23.21.36.02.12-.03.31-.12.37-.34.24-.69.11-.92-.24-.69-1.07-.56-2.1-.08-3.24.38-.91.62-1.91.71-2.9.14-1.54.44-3.02,1-4.46.47-1.22.53-2.5.43-3.79-.01-.19-.03-.37-.04-.56-.04-1.56.44-2.29,1.87-2.89.13-.05.26-.1.39-.15.85-.33.89-.33.78-1.27-.08-.63-.23-1.26-.4-1.87-.46-1.61.47-3.24,2.07-3.79.43-.15,1.05-.05,1.47.17,1.23.63,1.94,1.68,2.11,3.07.17,1.34.46,2.64,1.07,3.85.94-.06,1.49.55,1.55,1.64.05,1.06.03,2.14.22,3.18.19,1.06.45,2.18.97,3.11.55.98.98,1.97,1.37,3.01.01.04.05.07.13.19-.09-.98-.18-1.87-.25-2.76-.06-.64-.09-1.27.25-1.87.1-.18.11-.43.1-.64-.03-1.31.18-2.57.72-3.78.21-.47.25-1.02.32-1.54.05-.38.22-.64.54-.82,1.09-.61,2.17-1.22,3.34-1.88-.2-.36-.45-.73-.63-1.13-.16-.34-.32-.71-.35-1.08-.04-.52.04-1.06.06-1.59.05-1.74,1.68-2.81,3.3-2.21.82.3,1.25.84,1.28,1.7.02.51.07,1.03.04,1.54-.01.25-.1.54-.25.73-.53.68-.49,1.5.22,1.99,1.01.69,2.08,1.3,3.1,1.98.2.14.37.44.42.69.13.66.19,1.33.27,1.99.17,1.28.2,2.61.54,3.84.38,1.34-.02,2.48-.44,3.68-.34.97-.59,1.96-.89,2.94-.11.35-.23.7-.36,1.09-.19-.07-.31-.11-.47-.17-.01.11-.03.2-.03.29.07,2.24,0,4.48-.5,6.67-.28,1.26-.6,2.54-1.15,3.7-.9,1.88-1.34,3.9-2.09,5.83-.12.32-.04.6.22.85.28.25.54.52.77.82.1.13.19.39.13.48-.09.14-.32.24-.5.26-.33.04-.67.01-1.06.01.12.5.21.89.33,1.37-.38,0-.69.03-.99,0-.49-.06-.98-.18-1.47-.27-.48-.09-.68-.4-.72-.85-.07-.82-.06-.81.72-1.18.27-.13.43-.33.34-.7-.43-1.68-.81-3.37-1.27-5.04-.36-1.3-.81-2.57-1.25-3.85-.23-.68-.33-1.34-.31-2.07.04-.89-.05-1.78-.08-2.66-.01-.37,0-.74,0-1.07-.38-.04-.72-.02-1.04-.11-.79-.23-1.16-.85-1.07-1.66.05-.45-.03-.84-.33-1.22-.59-.75-1.13-1.54-1.69-2.3-.78-1.06-1.32-2.21-1.53-3.53-.09-.57-.28-1.12-.45-1.67-.06-.2-.16-.38-.28-.56-.09.74-.09,1.42.18,2.15.49,1.32.81,2.72,1.17,4.09.23.91.36,1.84.62,2.74.3,1,.67,1.97,1.06,2.94.48,1.18.29,1.98-.82,2.6-.33.18-.8.11-1.17.15,0-.32.08-.69-.02-.75-.36-.22-.79-.34-1.19-.47-.04-.01-.2.16-.21.26-.2,1.53-.74,3.01-.7,4.57,0,.14,0,.28.04.42.27.98.21,1.94-.03,2.92-.47,1.93-.91,3.86-1.33,5.79-.07.33.05.7.1,1.05.05.34.29.77.17,1-.28.52-.82.82-1.46.81-.11,0-.22-.02-.33-.02-.87.03-.86-.12-.82-.97.05-1.03.29-2.06,0-3.13-.57-2.06-.96-4.18-.89-6.33.02-.54.2-1.07.29-1.6.07-.39.23-.82.14-1.18-.25-.94-.62-1.86-.95-2.78-.04-.11-.13-.27-.22-.29-.55-.15-.53-.63-.65-1.03-.69-2.3-.61-4.66-.59-7.02.01-1.47-.02-2.94.28-4.39.02-.12-.08-.26-.13-.39-.06.01-.12.02-.18.03ZM762.41,182.98c.04-.39.06-.7.11-1.01.09-.6.09-1.25.33-1.78.39-.84.55-1.67.52-2.58-.01-.45.03-.9.07-1.35.04-.5-.1-.93-.4-1.39-.26.6-.51,1.13-.73,1.68-.08.21-.12.45-.13.68-.07,1.4-.09,2.81-.19,4.21-.04.57.1,1.02.43,1.55ZM770.85,180.21l.15.07c.12-.14.34-.28.35-.43.04-.93.13-1.88.02-2.79-.1-.85-.44-1.68-.68-2.53-.55,1.93.04,3.8.17,5.68Z"/>
        <rect x="758.08" y="151.54" width="2.89" height="10.75"/>
        <rect x="758.08" y="133.85" width="2.89" height="10.75"/>
      </g>
    </g>
  </g>
</svg>